DBRep_DrawableShape

CASCADE Topology V1, (c) Matra-Datavision
Locations 9
1
              1               0               0               0 
              0               1               0               0 
              0               0               1               0 
1
              1               0               0               0 
              0               1               0               0 
              0               0               1               0 
2  2 -1 0
1
              1               0               0               0 
              0               1               0               0 
              0               0               1               0 
1
              1               0               0               0 
              0               1               0               0 
              0               0               1               0 
1
              1               0               0               0 
              0               1               0               0 
              0               0               1               0 
2  4 1 5 1 6 -1 0
2  6 1 5 -1 4 -1 0
2  2 -1 6 1 5 -1 4 -1 0
Curve2ds 4
1 0 -1.5707963267948963 1 0 
1 0 1.5707963267948963 1 0 
1 6.2831853071795862 -6.2831853071795862 0 1 
1 0 -6.2831853071795862 0 1 
Curves 1
2 -1.2325951644078309e-32 6.7489190219783592e-33 0 0 0 1 1 0 0 0 1 0 0.20000000000000001
Polygon3D 0
PolygonOnTriangulations 4
2 1 2 
p 0.002 1 0 6.28318530717959 
2 19 18 
p 0.002 1 0 6.28318530717959 
17 2 3 4 5 6 7 8 9 10 11 12 13 14 15 16 17 18 
p 0.002 1 4.71238898038469 4.90873852123405 5.10508806208341 5.30143760293278 5.49778714378214 5.6941366846315 5.89048622548086 6.08683576633023 6.28318530717959 6.47953484802895 6.67588438887831 6.87223392972767 7.06858347057704 7.2649330114264 7.46128255227576 7.65763209312512 7.85398163397448 
17 1 20 21 22 23 24 25 26 27 28 29 30 31 32 33 34 19 
p 0.002 1 4.71238898038469 4.90873852123405 5.10508806208341 5.30143760293278 5.49778714378214 5.6941366846315 5.89048622548086 6.08683576633023 6.28318530717959 6.47953484802895 6.67588438887831 6.87223392972767 7.06858347057704 7.2649330114264 7.46128255227576 7.65763209312512 7.85398163397448 
Surfaces 1
4 -1.2325951644078309e-32 6.7489190219783592e-33 0 0 1 0 1 0 0 0 0 1 0.20000000000000001
Triangulations 1
507 978 1 0.002
-3.67394039744206e-17 -0.2 0 -3.67394039744206e-17 -0.2 0 0.0390180644032257 -0.196157056080646 0 0.076536686473018 -0.184775906502257 0 0.111114046603921 -0.166293922460509 0 0.14142135623731 -0.141421356237309 0 0.166293922460509 -0.11111404660392 0 0.184775906502257 -0.0765366864730178 0 0.196157056080646 -0.0390180644032254 0 0.2 3.06285495914156e-16 0 0.196157056080646 0.039018064403226 0 0.184775906502257 0.0765366864730183 0 0.166293922460509 0.111114046603921 0 0.141421356237309 0.14142135623731 0 0.11111404660392 0.166293922460509 0 0.0765366864730174 0.184775906502258 0 0.0390180644032251 0.196157056080646 0 6.12323399573676e-17 0.2 0 6.12323399573676e-17 0.2 0 0.0390180644032257 -0.196157056080646 0 0.076536686473018 -0.184775906502257 0 0.111114046603921 -0.166293922460509 0 0.14142135623731 -0.141421356237309 0 0.166293922460509 -0.11111404660392 0 0.184775906502257 -0.0765366864730178 0 0.196157056080646 -0.0390180644032254 0 0.2 3.06285495914156e-16 0 0.196157056080646 0.039018064403226 0 0.184775906502257 0.0765366864730183 0 0.166293922460509 0.111114046603921 0 0.141421356237309 0.14142135623731 0 0.11111404660392 0.166293922460509 0 0.0765366864730174 0.184775906502258 0 0.0390180644032251 0.196157056080646 0 0.0388301817584023 -0.196157056080646 0.0038244390939988 0.0373379596496437 -0.196157056080646 0.0113263462323842 0.0344108606909183 -0.196157056080646 0.0183929882369472 0.0301613716536739 -0.196157056080646 0.024752798018471 0.0750660555035731 -0.184775906502257 0.0149315668100685 0.024752798018471 -0.196157056080646 0.0301613716536739 0.0707106781186548 -0.184775906502257 0.0292893218813453 0.0183929882369472 -0.196157056080646 0.0344108606909183 0.0636379290286417 -0.184775906502257 0.0425215047383628 0.0113263462323842 -0.196157056080646 0.0373379596496437 0.110579002098964 -0.166293922460509 0.0108910810985618 0.0541196100146197 -0.184775906502257 0.0541196100146197 0.00382443909399881 -0.196157056080646 0.0388301817584023 0.10632951306172 -0.166293922460509 0.0322547051568563 0.0425215047383628 -0.184775906502257 0.0636379290286417 -0.0038244390939988 -0.196157056080646 0.0388301817584023 0.0979938404677916 -0.166293922460509 0.0523787989846199 0.0292893218813453 -0.184775906502257 0.0707106781186548 -0.0113263462323842 -0.196157056080646 0.0373379596496437 0.0858923195402648 -0.166293922460509 0.0704900049417735 0.0149315668100685 -0.184775906502257 0.0750660555035731 0.138703984532215 -0.14142135623731 0.0275899379282943 -0.0183929882369472 -0.196157056080646 0.0344108606909183 0.0704900049417735 -0.166293922460509 0.0858923195402648 4.68652040532629e-18 -0.184775906502257 0.076536686473018 0.130656296487638 -0.14142135623731 0.0541196100146197 -0.024752798018471 -0.196157056080646 0.0301613716536739 0.05237879898462 -0.166293922460509 0.0979938404677916 -0.0149315668100685 -0.184775906502257 0.0750660555035731 0.117587560241936 -0.14142135623731 0.0785694958387102 -0.030161371653674 -0.196157056080646 0.0247527980184709 0.0322547051568564 -0.166293922460509 0.10632951306172 0.165493171771109 -0.11111404660392 0.0162996547337648 -0.0292893218813453 -0.184775906502257 0.0707106781186548 0.1 -0.14142135623731 0.1 -0.0344108606909183 -0.196157056080646 0.0183929882369472 0.0108910810985618 -0.166293922460509 0.110579002098964 0.159133361989585 -0.11111404660392 0.0482725776108275 -0.0425215047383628 -0.184775906502257 0.0636379290286417 0.0785694958387102 -0.14142135623731 0.117587560241936 -0.0373379596496437 -0.196157056080646 0.0113263462323842 -0.0108910810985618 -0.166293922460509 0.110579002098964 0.146658146349819 -0.11111404660392 0.0783904124018795 -0.0541196100146197 -0.184775906502257 0.0541196100146197 0.0541196100146197 -0.14142135623731 0.130656296487638 -0.0388301817584023 -0.196157056080646 0.00382443909399876 -0.0322547051568563 -0.166293922460509 0.10632951306172 0.128546940392666 -0.11111404660392 0.105495747606177 -0.0636379290286417 -0.184775906502257 0.0425215047383628 0.0275899379282943 -0.14142135623731 0.138703984532215 0.181225489270578 -0.076536686473018 0.0360479911003474 -0.0388301817584023 -0.196157056080646 -0.00382443909399885 -0.0523787989846199 -0.166293922460509 0.0979938404677916 0.105495747606177 -0.11111404660392 0.128546940392666 -0.0707106781186548 -0.184775906502257 0.0292893218813452 8.65956056235492e-18 -0.14142135623731 0.14142135623731 0.170710678118655 -0.076536686473018 0.0707106781186548 -0.0373379596496437 -0.196157056080646 -0.0113263462323842 -0.0704900049417735 -0.166293922460509 0.0858923195402648 0.0783904124018795 -0.11111404660392 0.146658146349819 -0.0750660555035731 -0.184775906502257 0.0149315668100685 -0.0275899379282943 -0.14142135623731 0.138703984532215 0.153635551342283 -0.076536686473018 0.102655993431867 -0.0344108606909183 -0.196157056080646 -0.0183929882369473 -0.0858923195402649 -0.166293922460509 0.0704900049417734 0.0482725776108275 -0.11111404660392 0.159133361989585 0.195212506240441 -0.0390180644032257 0.0192267536924902 -0.076536686473018 -0.184775906502257 -5.86051924300365e-17 -0.0541196100146197 -0.14142135623731 0.130656296487638 0.130656296487638 -0.076536686473018 0.130656296487638 -0.0301613716536739 -0.196157056080646 -0.024752798018471 -0.0979938404677916 -0.166293922460509 0.0523787989846199 0.0162996547337648 -0.11111404660392 0.165493171771109 0.187710599102055 -0.0390180644032257 0.0569413877155558 -0.0750660555035731 -0.184775906502257 -0.0149315668100686 -0.0785694958387102 -0.14142135623731 0.117587560241936 0.102655993431867 -0.076536686473018 0.153635551342283 -0.0247527980184709 -0.196157056080646 -0.030161371653674 -0.10632951306172 -0.166293922460509 0.0322547051568562 -0.0162996547337648 -0.11111404660392 0.165493171771109 0.172995078909495 -0.0390180644032257 0.0924677961418108 -0.0707106781186547 -0.184775906502257 -0.0292893218813453 -0.1 -0.14142135623731 0.1 0.0707106781186548 -0.076536686473018 0.170710678118655 -0.0183929882369471 -0.196157056080646 -0.0344108606909184 -0.110579002098964 -0.166293922460509 0.0108910810985617 -0.0482725776108274 -0.11111404660392 0.159133361989585 0.1516314548512 -0.0390180644032257 0.124440719018873 -0.0636379290286417 -0.184775906502257 -0.0425215047383629 -0.117587560241936 -0.14142135623731 0.0785694958387102 0.0360479911003474 -0.076536686473018 0.181225489270578 0.196157056080646 6.74891902197836e-33 0.0390180644032257 -0.0113263462323841 -0.196157056080646 -0.0373379596496437 -0.110579002098964 -0.166293922460509 -0.010891081098562 -0.0783904124018795 -0.11111404660392 0.146658146349819 0.124440719018873 -0.0390180644032257 0.1516314548512 -0.0541196100146196 -0.184775906502257 -0.0541196100146198 -0.130656296487638 -0.14142135623731 0.0541196100146197 1.1314261122877e-17 -0.076536686473018 0.184775906502257 0.184775906502257 6.74891902197836e-33 0.076536686473018 -0.00382443909399869 -0.196157056080646 -0.0388301817584023 -0.10632951306172 -0.166293922460509 -0.0322547051568565 -0.105495747606177 -0.11111404660392 0.128546940392666 0.0924677961418108 -0.0390180644032257 0.172995078909495 -0.0425215047383627 -0.184775906502257 -0.0636379290286418 -0.138703984532215 -0.14142135623731 0.0275899379282942 -0.0360479911003474 -0.076536686473018 0.181225489270578 0.166293922460509 6.74891902197836e-33 0.11111404660392 0.00382443909399892 -0.196157056080646 -0.0388301817584023 -0.0979938404677915 -0.166293922460509 -0.0523787989846201 -0.128546940392666 -0.11111404660392 0.105495747606177 0.0569413877155559 -0.0390180644032257 0.187710599102055 0.195212506240441 0.0390180644032257 0.0192267536924902 -0.0292893218813451 -0.184775906502257 -0.0707106781186548 -0.14142135623731 -0.14142135623731 -1.08288275569992e-16 -0.0707106781186548 -0.076536686473018 0.170710678118655 0.14142135623731 6.74891902197836e-33 0.14142135623731 0.0113263462323843 -0.196157056080646 -0.0373379596496437 -0.0858923195402647 -0.166293922460509 -0.0704900049417736 -0.14665814634982 -0.11111404660392 0.0783904124018793 0.0192267536924902 -0.0390180644032257 0.195212506240441 0.187710599102055 0.0390180644032257 0.0569413877155558 -0.0149315668100684 -0.184775906502257 -0.0750660555035731 -0.138703984532215 -0.14142135623731 -0.0275899379282944 -0.102655993431867 -0.076536686473018 0.153635551342283 0.11111404660392 6.74891902197836e-33 0.166293922460509 0.0183929882369473 -0.196157056080646 -0.0344108606909183 -0.0704900049417733 -0.166293922460509 -0.085892319540265 -0.159133361989585 -0.11111404660392 0.0482725776108273 -0.0192267536924901 -0.0390180644032257 0.195212506240441 0.172995078909495 0.0390180644032257 0.0924677961418108 1.89875138506088e-16 -0.184775906502257 -0.076536686473018 -0.130656296487638 -0.14142135623731 -0.0541196100146199 -0.130656296487638 -0.076536686473018 0.130656296487638 0.076536686473018 6.74891902197836e-33 0.184775906502257 0.0247527980184711 -0.196157056080646 -0.0301613716536739 -0.0523787989846197 -0.166293922460509 -0.0979938404677917 -0.165493171771109 -0.11111404660392 0.0162996547337646 -0.0569413877155558 -0.0390180644032257 0.187710599102055 0.1516314548512 0.0390180644032257 0.124440719018873 0.0149315668100687 -0.184775906502257 -0.075066055503573 -0.117587560241936 -0.14142135623731 -0.0785694958387104 -0.153635551342283 -0.076536686473018 0.102655993431867 0.0390180644032257 6.74891902197836e-33 0.196157056080646 0.181225489270578 0.076536686473018 0.0360479911003474 0.030161371653674 -0.196157056080646 -0.0247527980184708 -0.0322547051568561 -0.166293922460509 -0.10632951306172 -0.165493171771109 -0.11111404660392 -0.016299654733765 -0.0924677961418108 -0.0390180644032257 0.172995078909495 0.124440719018873 0.0390180644032257 0.1516314548512 0.0292893218813455 -0.184775906502257 -0.0707106781186547 -0.0999999999999999 -0.14142135623731 -0.1 -0.170710678118655 -0.076536686473018 0.0707106781186547 1.22464679914735e-17 6.74891902197836e-33 0.2 0.170710678118655 0.076536686473018 0.0707106781186548 0.0344108606909184 -0.196157056080646 -0.0183929882369471 -0.0108910810985615 -0.166293922460509 -0.110579002098964 -0.159133361989585 -0.11111404660392 -0.0482725776108277 -0.124440719018874 -0.0390180644032257 0.1516314548512 0.0924677961418108 0.0390180644032257 0.172995078909495 0.042521504738363 -0.184775906502257 -0.0636379290286416 -0.07856949583871 -0.14142135623731 -0.117587560241936 -0.181225489270578 -0.076536686473018 0.0360479911003473 -0.0390180644032256 6.74891902197836e-33 0.196157056080646 0.153635551342283 0.076536686473018 0.102655993431867 0.0373379596496438 -0.196157056080646 -0.011326346232384 0.0108910810985621 -0.166293922460509 -0.110579002098964 -0.146658146349819 -0.11111404660392 -0.0783904124018797 -0.1516314548512 -0.0390180644032257 0.124440719018873 0.0569413877155559 0.0390180644032257 0.187710599102055 0.165493171771109 0.11111404660392 0.0162996547337648 0.0541196100146199 -0.184775906502257 -0.0541196100146195 -0.0541196100146194 -0.14142135623731 -0.130656296487638 -0.184775906502257 -0.076536686473018 -1.41485450390079e-16 -0.076536686473018 6.74891902197836e-33 0.184775906502257 0.130656296487638 0.076536686473018 0.130656296487638 0.0388301817584023 -0.196157056080646 -0.00382443909399863 0.0322547051568567 -0.166293922460509 -0.10632951306172 -0.128546940392666 -0.11111404660392 -0.105495747606177 -0.172995078909495 -0.0390180644032257 0.0924677961418107 0.0192267536924902 0.0390180644032257 0.195212506240441 0.159133361989585 0.11111404660392 0.0482725776108275 0.0636379290286419 -0.184775906502257 -0.0425215047383626 -0.027589937928294 -0.14142135623731 -0.138703984532215 -0.181225489270578 -0.076536686473018 -0.0360479911003476 -0.11111404660392 6.74891902197836e-33 0.166293922460509 0.102655993431867 0.076536686473018 0.153635551342283 0.0523787989846203 -0.166293922460509 -0.0979938404677914 -0.105495747606177 -0.11111404660392 -0.128546940392666 -0.187710599102055 -0.0390180644032257 0.0569413877155557 -0.0192267536924901 0.0390180644032257 0.195212506240441 0.146658146349819 0.11111404660392 0.0783904124018795 0.0707106781186549 -0.184775906502257 -0.029289321881345 3.50843508397041e-16 -0.14142135623731 -0.14142135623731 -0.170710678118655 -0.076536686473018 -0.070710678118655 -0.14142135623731 6.74891902197836e-33 0.14142135623731 0.0707106781186548 0.076536686473018 0.170710678118655 0.0704900049417738 -0.166293922460509 -0.0858923195402646 -0.0783904124018791 -0.11111404660392 -0.14665814634982 -0.195212506240441 -0.0390180644032257 0.01922675369249 -0.0569413877155558 0.0390180644032257 0.187710599102055 0.128546940392666 0.11111404660392 0.105495747606177 0.0750660555035731 -0.184775906502257 -0.0149315668100682 0.0275899379282947 -0.14142135623731 -0.138703984532215 -0.153635551342283 -0.076536686473018 -0.102655993431868 -0.166293922460509 6.74891902197836e-33 0.11111404660392 0.0360479911003474 0.076536686473018 0.181225489270578 0.138703984532215 0.14142135623731 0.0275899379282943 0.0858923195402651 -0.166293922460509 -0.0704900049417731 -0.0482725776108271 -0.11111404660392 -0.159133361989586 -0.195212506240441 -0.0390180644032257 -0.0192267536924904 -0.0924677961418108 0.0390180644032257 0.172995078909495 0.105495747606177 0.11111404660392 0.128546940392666 0.0541196100146201 -0.14142135623731 -0.130656296487638 -0.130656296487637 -0.076536686473018 -0.130656296487638 -0.184775906502257 6.74891902197836e-33 0.0765366864730179 1.1314261122877e-17 0.076536686473018 0.184775906502257 0.130656296487638 0.14142135623731 0.0541196100146197 0.0979938404677918 -0.166293922460509 -0.0523787989846195 -0.0162996547337643 -0.11111404660392 -0.165493171771109 -0.187710599102055 -0.0390180644032257 -0.0569413877155561 -0.124440719018874 0.0390180644032257 0.1516314548512 0.0783904124018795 0.11111404660392 0.146658146349819 0.0785694958387106 -0.14142135623731 -0.117587560241936 -0.102655993431867 -0.076536686473018 -0.153635551342283 -0.196157056080646 6.74891902197836e-33 0.0390180644032255 -0.0360479911003474 0.076536686473018 0.181225489270578 0.117587560241936 0.14142135623731 0.0785694958387102 0.10632951306172 -0.166293922460509 -0.0322547051568559 0.0162996547337653 -0.11111404660392 -0.165493171771109 -0.172995078909494 -0.0390180644032257 -0.0924677961418111 -0.1516314548512 0.0390180644032257 0.124440719018873 0.0482725776108275 0.11111404660392 0.159133361989585 0.110579002098964 0.166293922460509 0.0108910810985618 0.1 -0.14142135623731 -0.0999999999999997 -0.0707106781186544 -0.076536686473018 -0.170710678118655 -0.2 6.74891902197836e-33 -1.53142747957078e-16 -0.0707106781186548 0.076536686473018 0.170710678118655 0.1 0.14142135623731 0.1 0.110579002098964 -0.166293922460509 -0.0108910810985613 0.048272577610828 -0.11111404660392 -0.159133361989585 -0.1516314548512 -0.0390180644032257 -0.124440719018874 -0.172995078909495 0.0390180644032257 0.0924677961418107 0.0162996547337648 0.11111404660392 0.165493171771109 0.10632951306172 0.166293922460509 0.0322547051568563 0.117587560241936 -0.14142135623731 -0.0785694958387098 -0.036047991100347 -0.076536686473018 -0.181225489270578 -0.196157056080646 6.74891902197836e-33 -0.0390180644032258 -0.102655993431867 0.076536686473018 0.153635551342283 0.0785694958387102 0.14142135623731 0.117587560241936 0.07839041240188 -0.11111404660392 -0.146658146349819 -0.124440719018873 -0.0390180644032257 -0.1516314548512 -0.187710599102055 0.0390180644032257 0.0569413877155557 -0.0162996547337648 0.11111404660392 0.165493171771109 0.0979938404677916 0.166293922460509 0.0523787989846199 0.130656296487638 -0.14142135623731 -0.0541196100146192 4.58399134538868e-16 -0.076536686473018 -0.184775906502257 -0.184775906502257 6.74891902197836e-33 -0.0765366864730182 -0.130656296487638 0.076536686473018 0.130656296487638 0.0541196100146197 0.14142135623731 0.130656296487638 0.105495747606177 -0.11111404660392 -0.128546940392666 -0.0924677961418104 -0.0390180644032257 -0.172995078909495 -0.195212506240441 0.0390180644032257 0.01922675369249 -0.0482725776108274 0.11111404660392 0.159133361989585 0.0858923195402648 0.166293922460509 0.0704900049417735 0.138703984532215 -0.14142135623731 -0.0275899379282938 0.0360479911003479 -0.076536686473018 -0.181225489270577 -0.166293922460509 6.74891902197836e-33 -0.111114046603921 -0.153635551342283 0.076536686473018 0.102655993431867 0.0275899379282943 0.14142135623731 0.138703984532215 0.0750660555035731 0.184775906502257 0.0149315668100685 0.128546940392666 -0.11111404660392 -0.105495747606176 -0.0569413877155553 -0.0390180644032257 -0.187710599102055 -0.195212506240441 0.0390180644032257 -0.0192267536924904 -0.0783904124018795 0.11111404660392 0.146658146349819 0.0704900049417735 0.166293922460509 0.0858923195402648 0.0707106781186553 -0.076536686473018 -0.170710678118655 -0.141421356237309 6.74891902197836e-33 -0.14142135623731 -0.170710678118655 0.076536686473018 0.0707106781186547 8.65956056235492e-18 0.14142135623731 0.14142135623731 0.0707106781186548 0.184775906502257 0.0292893218813453 0.14665814634982 -0.11111404660392 -0.0783904124018788 -0.0192267536924896 -0.0390180644032257 -0.195212506240441 -0.187710599102055 0.0390180644032257 -0.0569413877155561 -0.105495747606177 0.11111404660392 0.128546940392666 0.05237879898462 0.166293922460509 0.0979938404677916 0.102655993431868 -0.076536686473018 -0.153635551342283 -0.11111404660392 6.74891902197836e-33 -0.166293922460509 -0.181225489270578 0.076536686473018 0.0360479911003473 -0.0275899379282943 0.14142135623731 0.138703984532215 0.0636379290286417 0.184775906502257 0.0425215047383628 0.159133361989586 -0.11111404660392 -0.0482725776108268 0.0192267536924908 -0.0390180644032257 -0.195212506240441 -0.172995078909494 0.0390180644032257 -0.0924677961418111 -0.128546940392666 0.11111404660392 0.105495747606177 0.0322547051568564 0.166293922460509 0.10632951306172 0.0388301817584023 0.196157056080646 0.0038244390939988 0.130656296487638 -0.076536686473018 -0.130656296487637 -0.0765366864730176 6.74891902197836e-33 -0.184775906502258 -0.184775906502257 0.076536686473018 -1.41485450390079e-16 -0.0541196100146197 0.14142135623731 0.130656296487638 0.0541196100146197 0.184775906502257 0.0541196100146197 0.165493171771109 -0.11111404660392 -0.016299654733764 0.0569413877155564 -0.0390180644032257 -0.187710599102055 -0.1516314548512 0.0390180644032257 -0.124440719018874 -0.14665814634982 0.11111404660392 0.0783904124018793 0.0108910810985618 0.166293922460509 0.110579002098964 0.0373379596496437 0.196157056080646 0.0113263462323842 0.153635551342284 -0.076536686473018 -0.102655993431867 -0.0390180644032252 6.74891902197836e-33 -0.196157056080646 -0.181225489270578 0.076536686473018 -0.0360479911003476 -0.0785694958387102 0.14142135623731 0.117587560241936 0.0425215047383628 0.184775906502257 0.0636379290286417 0.0924677961418114 -0.0390180644032257 -0.172995078909494 -0.124440719018873 0.0390180644032257 -0.1516314548512 -0.159133361989585 0.11111404660392 0.0482725776108273 -0.0108910810985618 0.166293922460509 0.110579002098964 0.0344108606909183 0.196157056080646 0.0183929882369472 0.170710678118655 -0.076536686473018 -0.0707106781186541 4.96167647845655e-16 6.74891902197836e-33 -0.2 -0.170710678118655 0.076536686473018 -0.070710678118655 -0.1 0.14142135623731 0.1 0.0292893218813453 0.184775906502257 0.0707106781186548 0.124440719018874 -0.0390180644032257 -0.1516314548512 -0.0924677961418104 0.0390180644032257 -0.172995078909495 -0.165493171771109 0.11111404660392 0.0162996547337646 -0.0322547051568563 0.166293922460509 0.10632951306172 0.0301613716536739 0.196157056080646 0.024752798018471 0.181225489270578 -0.076536686473018 -0.0360479911003467 0.0390180644032262 6.74891902197836e-33 -0.196157056080646 -0.153635551342283 0.076536686473018 -0.102655993431868 -0.117587560241936 0.14142135623731 0.0785694958387102 0.0149315668100685 0.184775906502257 0.0750660555035731 0.151631454851201 -0.0390180644032257 -0.124440719018873 -0.0569413877155553 0.0390180644032257 -0.187710599102055 -0.165493171771109 0.11111404660392 -0.016299654733765 -0.0523787989846199 0.166293922460509 0.0979938404677916 0.024752798018471 0.196157056080646 0.0301613716536739 0.0765366864730185 6.74891902197836e-33 -0.184775906502257 -0.130656296487637 0.076536686473018 -0.130656296487638 -0.130656296487638 0.14142135623731 0.0541196100146197 4.68652040532629e-18 0.184775906502257 0.076536686473018 0.172995078909495 -0.0390180644032257 -0.0924677961418101 -0.0192267536924896 0.0390180644032257 -0.195212506240441 -0.159133361989585 0.11111404660392 -0.0482725776108277 -0.0704900049417735 0.166293922460509 0.0858923195402648 0.0183929882369472 0.196157056080646 0.0344108606909183 0.111114046603921 6.74891902197836e-33 -0.166293922460509 -0.102655993431867 0.076536686473018 -0.153635551342283 -0.138703984532215 0.14142135623731 0.0275899379282942 -0.0149315668100685 0.184775906502257 0.0750660555035731 0.187710599102055 -0.0390180644032257 -0.056941387715555 0.0192267536924908 0.0390180644032257 -0.195212506240441 -0.146658146349819 0.11111404660392 -0.0783904124018797 -0.0858923195402649 0.166293922460509 0.0704900049417734 0.0113263462323842 0.196157056080646 0.0373379596496437 0.14142135623731 6.74891902197836e-33 -0.141421356237309 -0.0707106781186544 0.076536686473018 -0.170710678118655 -0.14142135623731 0.14142135623731 -1.08288275569992e-16 -0.0292893218813453 0.184775906502257 0.0707106781186548 0.195212506240441 -0.0390180644032257 -0.0192267536924893 0.0569413877155564 0.0390180644032257 -0.187710599102055 -0.128546940392666 0.11111404660392 -0.105495747606177 -0.0979938404677916 0.166293922460509 0.0523787989846199 0.00382443909399881 0.196157056080646 0.0388301817584023 0.166293922460509 6.74891902197836e-33 -0.11111404660392 -0.036047991100347 0.076536686473018 -0.181225489270578 -0.138703984532215 0.14142135623731 -0.0275899379282944 -0.0425215047383628 0.184775906502257 0.0636379290286417 0.0924677961418114 0.0390180644032257 -0.172995078909494 -0.105495747606177 0.11111404660392 -0.128546940392666 -0.10632951306172 0.166293922460509 0.0322547051568562 -0.0038244390939988 0.196157056080646 0.0388301817584023 0.184775906502258 6.74891902197836e-33 -0.0765366864730173 4.58399134538868e-16 0.076536686473018 -0.184775906502257 -0.130656296487638 0.14142135623731 -0.0541196100146199 -0.0541196100146197 0.184775906502257 0.0541196100146197 0.124440719018874 0.0390180644032257 -0.1516314548512 -0.0783904124018791 0.11111404660392 -0.14665814634982 -0.110579002098964 0.166293922460509 0.0108910810985617 -0.0113263462323842 0.196157056080646 0.0373379596496437 0.196157056080646 6.74891902197836e-33 -0.0390180644032249 0.0360479911003479 0.076536686473018 -0.181225489270577 -0.117587560241936 0.14142135623731 -0.0785694958387104 -0.0636379290286417 0.184775906502257 0.0425215047383628 0.151631454851201 0.0390180644032257 -0.124440719018873 -0.0482725776108271 0.11111404660392 -0.159133361989586 -0.110579002098964 0.166293922460509 -0.010891081098562 -0.0183929882369472 0.196157056080646 0.0344108606909183 0.0707106781186553 0.076536686473018 -0.170710678118655 -0.0999999999999999 0.14142135623731 -0.1 -0.0707106781186548 0.184775906502257 0.0292893218813452 0.172995078909495 0.0390180644032257 -0.0924677961418101 -0.0162996547337643 0.11111404660392 -0.165493171771109 -0.10632951306172 0.166293922460509 -0.0322547051568565 -0.024752798018471 0.196157056080646 0.0301613716536739 0.102655993431868 0.076536686473018 -0.153635551342283 -0.07856949583871 0.14142135623731 -0.117587560241936 -0.0750660555035731 0.184775906502257 0.0149315668100685 0.187710599102055 0.0390180644032257 -0.056941387715555 0.0162996547337653 0.11111404660392 -0.165493171771109 -0.0979938404677915 0.166293922460509 -0.0523787989846201 -0.030161371653674 0.196157056080646 0.0247527980184709 0.130656296487638 0.076536686473018 -0.130656296487637 -0.0541196100146194 0.14142135623731 -0.130656296487638 -0.076536686473018 0.184775906502257 -5.86051924300365e-17 0.195212506240441 0.0390180644032257 -0.0192267536924893 0.048272577610828 0.11111404660392 -0.159133361989585 -0.0858923195402647 0.166293922460509 -0.0704900049417736 -0.0344108606909183 0.196157056080646 0.0183929882369472 0.153635551342284 0.076536686473018 -0.102655993431867 -0.027589937928294 0.14142135623731 -0.138703984532215 -0.0750660555035731 0.184775906502257 -0.0149315668100686 0.07839041240188 0.11111404660392 -0.146658146349819 -0.0704900049417733 0.166293922460509 -0.085892319540265 -0.0373379596496437 0.196157056080646 0.0113263462323842 0.170710678118655 0.076536686473018 -0.0707106781186541 3.50843508397041e-16 0.14142135623731 -0.14142135623731 -0.0707106781186547 0.184775906502257 -0.0292893218813453 0.105495747606177 0.11111404660392 -0.128546940392666 -0.0523787989846197 0.166293922460509 -0.0979938404677917 -0.0388301817584023 0.196157056080646 0.00382443909399876 0.181225489270578 0.076536686473018 -0.0360479911003467 0.0275899379282947 0.14142135623731 -0.138703984532215 -0.0636379290286417 0.184775906502257 -0.0425215047383629 0.128546940392666 0.11111404660392 -0.105495747606176 -0.0322547051568561 0.166293922460509 -0.10632951306172 -0.0388301817584023 0.196157056080646 -0.00382443909399885 0.0541196100146201 0.14142135623731 -0.130656296487638 -0.0541196100146196 0.184775906502257 -0.0541196100146198 0.14665814634982 0.11111404660392 -0.0783904124018788 -0.0108910810985615 0.166293922460509 -0.110579002098964 -0.0373379596496437 0.196157056080646 -0.0113263462323842 0.0785694958387106 0.14142135623731 -0.117587560241936 -0.0425215047383627 0.184775906502257 -0.0636379290286418 0.159133361989586 0.11111404660392 -0.0482725776108268 0.0108910810985621 0.166293922460509 -0.110579002098964 -0.0344108606909183 0.196157056080646 -0.0183929882369473 0.1 0.14142135623731 -0.0999999999999997 -0.0292893218813451 0.184775906502257 -0.0707106781186548 0.165493171771109 0.11111404660392 -0.016299654733764 0.0322547051568567 0.166293922460509 -0.10632951306172 -0.0301613716536739 0.196157056080646 -0.024752798018471 0.117587560241936 0.14142135623731 -0.0785694958387098 -0.0149315668100684 0.184775906502257 -0.0750660555035731 0.0523787989846203 0.166293922460509 -0.0979938404677914 -0.0247527980184709 0.196157056080646 -0.030161371653674 0.130656296487638 0.14142135623731 -0.0541196100146192 1.89875138506088e-16 0.184775906502257 -0.076536686473018 0.0704900049417738 0.166293922460509 -0.0858923195402646 -0.0183929882369471 0.196157056080646 -0.0344108606909184 0.138703984532215 0.14142135623731 -0.0275899379282938 0.0149315668100687 0.184775906502257 -0.075066055503573 0.0858923195402651 0.166293922460509 -0.0704900049417731 -0.0113263462323841 0.196157056080646 -0.0373379596496437 0.0292893218813455 0.184775906502257 -0.0707106781186547 0.0979938404677918 0.166293922460509 -0.0523787989846195 -0.00382443909399869 0.196157056080646 -0.0388301817584023 0.042521504738363 0.184775906502257 -0.0636379290286416 0.10632951306172 0.166293922460509 -0.0322547051568559 0.00382443909399892 0.196157056080646 -0.0388301817584023 0.0541196100146199 0.184775906502257 -0.0541196100146195 0.110579002098964 0.166293922460509 -0.0108910810985613 0.0113263462323843 0.196157056080646 -0.0373379596496437 0.0636379290286419 0.184775906502257 -0.0425215047383626 0.0183929882369473 0.196157056080646 -0.0344108606909183 0.0707106781186549 0.184775906502257 -0.029289321881345 0.0247527980184711 0.196157056080646 -0.0301613716536739 0.0750660555035731 0.184775906502257 -0.0149315668100682 0.030161371653674 0.196157056080646 -0.0247527980184708 0.0344108606909184 0.196157056080646 -0.0183929882369471 0.0373379596496438 0.196157056080646 -0.011326346232384 0.0388301817584023 0.196157056080646 -0.00382443909399863 0 -1.5707963267949 6.28318530717959 -1.5707963267949 6.28318530717959 -1.37444678594553 6.28318530717959 -1.17809724509617 6.28318530717959 -0.98174770424681 6.28318530717959 -0.785398163397447 6.28318530717959 -0.589048622548085 6.28318530717959 -0.392699081698723 6.28318530717959 -0.196349540849361 6.28318530717959 1.77635683940025e-15 6.28318530717959 0.196349540849364 6.28318530717959 0.392699081698726 6.28318530717959 0.589048622548089 6.28318530717959 0.785398163397451 6.28318530717959 0.981747704246813 6.28318530717959 1.17809724509618 6.28318530717959 1.37444678594554 6.28318530717959 1.5707963267949 0 1.5707963267949 0 -1.37444678594553 0 -1.17809724509617 0 -0.98174770424681 0 -0.785398163397447 0 -0.589048622548085 0 -0.392699081698723 0 -0.196349540849361 0 1.77635683940025e-15 0 0.196349540849364 0 0.392699081698726 0 0.589048622548089 0 0.785398163397451 0 0.981747704246813 0 1.17809724509618 0 1.37444678594554 0.098174770424681 -1.37444678594553 0.294524311274043 -1.37444678594553 0.490873852123405 -1.37444678594553 0.687223392972767 -1.37444678594553 0.196349540849362 -1.17809724509617 0.883572933822129 -1.37444678594553 0.392699081698724 -1.17809724509617 1.07992247467149 -1.37444678594553 0.589048622548086 -1.17809724509617 1.27627201552085 -1.37444678594553 0.098174770424681 -0.98174770424681 0.785398163397448 -1.17809724509617 1.47262155637022 -1.37444678594553 0.294524311274043 -0.98174770424681 0.98174770424681 -1.17809724509617 1.66897109721958 -1.37444678594553 0.490873852123405 -0.98174770424681 1.17809724509617 -1.17809724509617 1.86532063806894 -1.37444678594553 0.687223392972767 -0.98174770424681 1.37444678594553 -1.17809724509617 0.196349540849362 -0.785398163397448 2.0616701789183 -1.37444678594553 0.883572933822129 -0.98174770424681 1.5707963267949 -1.17809724509617 0.392699081698724 -0.785398163397448 2.25801971976766 -1.37444678594553 1.07992247467149 -0.98174770424681 1.76714586764426 -1.17809724509617 0.589048622548086 -0.785398163397448 2.45436926061703 -1.37444678594553 1.27627201552085 -0.98174770424681 0.098174770424681 -0.589048622548086 1.96349540849362 -1.17809724509617 0.785398163397448 -0.785398163397448 2.65071880146639 -1.37444678594553 1.47262155637022 -0.98174770424681 0.294524311274043 -0.589048622548086 2.15984494934298 -1.17809724509617 0.98174770424681 -0.785398163397448 2.84706834231575 -1.37444678594553 1.66897109721958 -0.98174770424681 0.490873852123405 -0.589048622548086 2.35619449019234 -1.17809724509617 1.17809724509617 -0.785398163397448 3.04341788316511 -1.37444678594553 1.86532063806894 -0.98174770424681 0.687223392972767 -0.589048622548086 2.55254403104171 -1.17809724509617 1.37444678594553 -0.785398163397448 0.196349540849362 -0.392699081698724 3.23976742401448 -1.37444678594553 2.0616701789183 -0.98174770424681 0.883572933822129 -0.589048622548086 2.74889357189107 -1.17809724509617 1.5707963267949 -0.785398163397448 0.392699081698724 -0.392699081698724 3.43611696486384 -1.37444678594553 2.25801971976766 -0.98174770424681 1.07992247467149 -0.589048622548086 2.94524311274043 -1.17809724509617 1.76714586764426 -0.785398163397448 0.589048622548086 -0.392699081698724 3.6324665057132 -1.37444678594553 2.45436926061703 -0.98174770424681 1.27627201552085 -0.589048622548086 0.098174770424681 -0.196349540849362 3.14159265358979 -1.17809724509617 1.96349540849362 -0.785398163397448 0.785398163397448 -0.392699081698724 3.82881604656256 -1.37444678594553 2.65071880146639 -0.98174770424681 1.47262155637022 -0.589048622548086 0.294524311274043 -0.196349540849362 3.33794219443916 -1.17809724509617 2.15984494934298 -0.785398163397448 0.98174770424681 -0.392699081698724 4.02516558741192 -1.37444678594553 2.84706834231575 -0.98174770424681 1.66897109721958 -0.589048622548086 0.490873852123405 -0.196349540849362 3.53429173528852 -1.17809724509617 2.35619449019234 -0.785398163397448 1.17809724509617 -0.392699081698724 4.22151512826129 -1.37444678594553 3.04341788316511 -0.98174770424681 1.86532063806894 -0.589048622548086 0.687223392972767 -0.196349540849362 3.73064127613788 -1.17809724509617 2.55254403104171 -0.785398163397448 1.37444678594553 -0.392699081698724 0.196349540849362 0 4.41786466911065 -1.37444678594553 3.23976742401448 -0.98174770424681 2.0616701789183 -0.589048622548086 0.883572933822129 -0.196349540849362 3.92699081698724 -1.17809724509617 2.74889357189107 -0.785398163397448 1.5707963267949 -0.392699081698724 0.392699081698724 0 4.61421420996001 -1.37444678594553 3.43611696486384 -0.98174770424681 2.25801971976766 -0.589048622548086 1.07992247467149 -0.196349540849362 4.12334035783661 -1.17809724509617 2.94524311274043 -0.785398163397448 1.76714586764426 -0.392699081698724 0.589048622548086 0 4.81056375080937 -1.37444678594553 3.6324665057132 -0.98174770424681 2.45436926061703 -0.589048622548086 1.27627201552085 -0.196349540849362 0.098174770424681 0.196349540849362 4.31968989868597 -1.17809724509617 3.14159265358979 -0.785398163397448 1.96349540849362 -0.392699081698724 0.785398163397448 0 5.00691329165874 -1.37444678594553 3.82881604656256 -0.98174770424681 2.65071880146639 -0.589048622548086 1.47262155637022 -0.196349540849362 0.294524311274043 0.196349540849362 4.51603943953533 -1.17809724509617 3.33794219443916 -0.785398163397448 2.15984494934298 -0.392699081698724 0.98174770424681 0 5.2032628325081 -1.37444678594553 4.02516558741192 -0.98174770424681 2.84706834231575 -0.589048622548086 1.66897109721958 -0.196349540849362 0.490873852123405 0.196349540849362 4.71238898038469 -1.17809724509617 3.53429173528852 -0.785398163397448 2.35619449019234 -0.392699081698724 1.17809724509617 0 5.39961237335746 -1.37444678594553 4.22151512826129 -0.98174770424681 3.04341788316511 -0.589048622548086 1.86532063806894 -0.196349540849362 0.687223392972767 0.196349540849362 4.90873852123405 -1.17809724509617 3.73064127613788 -0.785398163397448 2.55254403104171 -0.392699081698724 1.37444678594553 0 0.196349540849362 0.392699081698724 5.59596191420682 -1.37444678594553 4.41786466911065 -0.98174770424681 3.23976742401448 -0.589048622548086 2.0616701789183 -0.196349540849362 0.883572933822129 0.196349540849362 5.10508806208342 -1.17809724509617 3.92699081698724 -0.785398163397448 2.74889357189107 -0.392699081698724 1.5707963267949 0 0.392699081698724 0.392699081698724 5.79231145505619 -1.37444678594553 4.61421420996001 -0.98174770424681 3.43611696486384 -0.589048622548086 2.25801971976766 -0.196349540849362 1.07992247467149 0.196349540849362 5.30143760293278 -1.17809724509617 4.12334035783661 -0.785398163397448 2.94524311274043 -0.392699081698724 1.76714586764426 0 0.589048622548086 0.392699081698724 5.98866099590555 -1.37444678594553 4.81056375080937 -0.98174770424681 3.6324665057132 -0.589048622548086 2.45436926061703 -0.196349540849362 1.27627201552085 0.196349540849362 0.098174770424681 0.589048622548086 5.49778714378214 -1.17809724509617 4.31968989868597 -0.785398163397448 3.14159265358979 -0.392699081698724 1.96349540849362 0 0.785398163397448 0.392699081698724 6.18501053675491 -1.37444678594553 5.00691329165874 -0.98174770424681 3.82881604656256 -0.589048622548086 2.65071880146639 -0.196349540849362 1.47262155637022 0.196349540849362 0.294524311274043 0.589048622548086 5.6941366846315 -1.17809724509617 4.51603943953533 -0.785398163397448 3.33794219443916 -0.392699081698724 2.15984494934298 0 0.98174770424681 0.392699081698724 5.2032628325081 -0.98174770424681 4.02516558741192 -0.589048622548086 2.84706834231575 -0.196349540849362 1.66897109721958 0.196349540849362 0.490873852123405 0.589048622548086 5.89048622548087 -1.17809724509617 4.71238898038469 -0.785398163397448 3.53429173528852 -0.392699081698724 2.35619449019234 0 1.17809724509617 0.392699081698724 5.39961237335746 -0.98174770424681 4.22151512826129 -0.589048622548086 3.04341788316511 -0.196349540849362 1.86532063806894 0.196349540849362 0.687223392972767 0.589048622548086 6.08683576633023 -1.17809724509617 4.90873852123405 -0.785398163397448 3.73064127613788 -0.392699081698724 2.55254403104171 0 1.37444678594553 0.392699081698724 0.196349540849362 0.785398163397448 5.59596191420682 -0.98174770424681 4.41786466911065 -0.589048622548086 3.23976742401448 -0.196349540849362 2.0616701789183 0.196349540849362 0.883572933822129 0.589048622548086 5.10508806208342 -0.785398163397448 3.92699081698724 -0.392699081698724 2.74889357189107 0 1.5707963267949 0.392699081698724 0.392699081698724 0.785398163397448 5.79231145505619 -0.98174770424681 4.61421420996001 -0.589048622548086 3.43611696486384 -0.196349540849362 2.25801971976766 0.196349540849362 1.07992247467149 0.589048622548086 5.30143760293278 -0.785398163397448 4.12334035783661 -0.392699081698724 2.94524311274043 0 1.76714586764426 0.392699081698724 0.589048622548086 0.785398163397448 5.98866099590555 -0.98174770424681 4.81056375080937 -0.589048622548086 3.6324665057132 -0.196349540849362 2.45436926061703 0.196349540849362 1.27627201552085 0.589048622548086 0.098174770424681 0.98174770424681 5.49778714378214 -0.785398163397448 4.31968989868597 -0.392699081698724 3.14159265358979 0 1.96349540849362 0.392699081698724 0.785398163397448 0.785398163397448 6.18501053675491 -0.98174770424681 5.00691329165874 -0.589048622548086 3.82881604656256 -0.196349540849362 2.65071880146639 0.196349540849362 1.47262155637022 0.589048622548086 0.294524311274043 0.98174770424681 5.6941366846315 -0.785398163397448 4.51603943953533 -0.392699081698724 3.33794219443916 0 2.15984494934298 0.392699081698724 0.98174770424681 0.785398163397448 5.2032628325081 -0.589048622548086 4.02516558741192 -0.196349540849362 2.84706834231575 0.196349540849362 1.66897109721958 0.589048622548086 0.490873852123405 0.98174770424681 5.89048622548087 -0.785398163397448 4.71238898038469 -0.392699081698724 3.53429173528852 0 2.35619449019234 0.392699081698724 1.17809724509617 0.785398163397448 5.39961237335746 -0.589048622548086 4.22151512826129 -0.196349540849362 3.04341788316511 0.196349540849362 1.86532063806894 0.589048622548086 0.687223392972767 0.98174770424681 6.08683576633023 -0.785398163397448 4.90873852123405 -0.392699081698724 3.73064127613788 0 2.55254403104171 0.392699081698724 1.37444678594553 0.785398163397448 0.196349540849362 1.17809724509617 5.59596191420682 -0.589048622548086 4.41786466911065 -0.196349540849362 3.23976742401448 0.196349540849362 2.0616701789183 0.589048622548086 0.883572933822129 0.98174770424681 5.10508806208342 -0.392699081698724 3.92699081698724 0 2.74889357189107 0.392699081698724 1.5707963267949 0.785398163397448 0.392699081698724 1.17809724509617 5.79231145505619 -0.589048622548086 4.61421420996001 -0.196349540849362 3.43611696486384 0.196349540849362 2.25801971976766 0.589048622548086 1.07992247467149 0.98174770424681 5.30143760293278 -0.392699081698724 4.12334035783661 0 2.94524311274043 0.392699081698724 1.76714586764426 0.785398163397448 0.589048622548086 1.17809724509617 5.98866099590555 -0.589048622548086 4.81056375080937 -0.196349540849362 3.6324665057132 0.196349540849362 2.45436926061703 0.589048622548086 1.27627201552085 0.98174770424681 0.098174770424681 1.37444678594553 5.49778714378214 -0.392699081698724 4.31968989868597 0 3.14159265358979 0.392699081698724 1.96349540849362 0.785398163397448 0.785398163397448 1.17809724509617 6.18501053675491 -0.589048622548086 5.00691329165874 -0.196349540849362 3.82881604656256 0.196349540849362 2.65071880146639 0.589048622548086 1.47262155637022 0.98174770424681 0.294524311274043 1.37444678594553 5.6941366846315 -0.392699081698724 4.51603943953533 0 3.33794219443916 0.392699081698724 2.15984494934298 0.785398163397448 0.98174770424681 1.17809724509617 5.2032628325081 -0.196349540849362 4.02516558741192 0.196349540849362 2.84706834231575 0.589048622548086 1.66897109721958 0.98174770424681 0.490873852123405 1.37444678594553 5.89048622548087 -0.392699081698724 4.71238898038469 0 3.53429173528852 0.392699081698724 2.35619449019234 0.785398163397448 1.17809724509617 1.17809724509617 5.39961237335746 -0.196349540849362 4.22151512826129 0.196349540849362 3.04341788316511 0.589048622548086 1.86532063806894 0.98174770424681 0.687223392972767 1.37444678594553 6.08683576633023 -0.392699081698724 4.90873852123405 0 3.73064127613788 0.392699081698724 2.55254403104171 0.785398163397448 1.37444678594553 1.17809724509617 5.59596191420682 -0.196349540849362 4.41786466911065 0.196349540849362 3.23976742401448 0.589048622548086 2.0616701789183 0.98174770424681 0.883572933822129 1.37444678594553 5.10508806208342 0 3.92699081698724 0.392699081698724 2.74889357189107 0.785398163397448 1.5707963267949 1.17809724509617 5.79231145505619 -0.196349540849362 4.61421420996001 0.196349540849362 3.43611696486384 0.589048622548086 2.25801971976766 0.98174770424681 1.07992247467149 1.37444678594553 5.30143760293278 0 4.12334035783661 0.392699081698724 2.94524311274043 0.785398163397448 1.76714586764426 1.17809724509617 5.98866099590555 -0.196349540849362 4.81056375080937 0.196349540849362 3.6324665057132 0.589048622548086 2.45436926061703 0.98174770424681 1.27627201552085 1.37444678594553 5.49778714378214 0 4.31968989868597 0.392699081698724 3.14159265358979 0.785398163397448 1.96349540849362 1.17809724509617 6.18501053675491 -0.196349540849362 5.00691329165874 0.196349540849362 3.82881604656256 0.589048622548086 2.65071880146639 0.98174770424681 1.47262155637022 1.37444678594553 5.6941366846315 0 4.51603943953533 0.392699081698724 3.33794219443916 0.785398163397448 2.15984494934298 1.17809724509617 5.2032628325081 0.196349540849362 4.02516558741192 0.589048622548086 2.84706834231575 0.98174770424681 1.66897109721958 1.37444678594553 5.89048622548087 0 4.71238898038469 0.392699081698724 3.53429173528852 0.785398163397448 2.35619449019234 1.17809724509617 5.39961237335746 0.196349540849362 4.22151512826129 0.589048622548086 3.04341788316511 0.98174770424681 1.86532063806894 1.37444678594553 6.08683576633023 0 4.90873852123405 0.392699081698724 3.73064127613788 0.785398163397448 2.55254403104171 1.17809724509617 5.59596191420682 0.196349540849362 4.41786466911065 0.589048622548086 3.23976742401448 0.98174770424681 2.0616701789183 1.37444678594553 5.10508806208342 0.392699081698724 3.92699081698724 0.785398163397448 2.74889357189107 1.17809724509617 5.79231145505619 0.196349540849362 4.61421420996001 0.589048622548086 3.43611696486384 0.98174770424681 2.25801971976766 1.37444678594553 5.30143760293278 0.392699081698724 4.12334035783661 0.785398163397448 2.94524311274043 1.17809724509617 5.98866099590555 0.196349540849362 4.81056375080937 0.589048622548086 3.6324665057132 0.98174770424681 2.45436926061703 1.37444678594553 5.49778714378214 0.392699081698724 4.31968989868597 0.785398163397448 3.14159265358979 1.17809724509617 6.18501053675491 0.196349540849362 5.00691329165874 0.589048622548086 3.82881604656256 0.98174770424681 2.65071880146639 1.37444678594553 5.6941366846315 0.392699081698724 4.51603943953533 0.785398163397448 3.33794219443916 1.17809724509617 5.2032628325081 0.589048622548086 4.02516558741192 0.98174770424681 2.84706834231575 1.37444678594553 5.89048622548087 0.392699081698724 4.71238898038469 0.785398163397448 3.53429173528852 1.17809724509617 5.39961237335746 0.589048622548086 4.22151512826129 0.98174770424681 3.04341788316511 1.37444678594553 6.08683576633023 0.392699081698724 4.90873852123405 0.785398163397448 3.73064127613788 1.17809724509617 5.59596191420682 0.589048622548086 4.41786466911065 0.98174770424681 3.23976742401448 1.37444678594553 5.10508806208342 0.785398163397448 3.92699081698724 1.17809724509617 5.79231145505619 0.589048622548086 4.61421420996001 0.98174770424681 3.43611696486384 1.37444678594553 5.30143760293278 0.785398163397448 4.12334035783661 1.17809724509617 5.98866099590555 0.589048622548086 4.81056375080937 0.98174770424681 3.6324665057132 1.37444678594553 5.49778714378214 0.785398163397448 4.31968989868597 1.17809724509617 6.18501053675491 0.589048622548086 5.00691329165874 0.98174770424681 3.82881604656256 1.37444678594553 5.6941366846315 0.785398163397448 4.51603943953533 1.17809724509617 5.2032628325081 0.98174770424681 4.02516558741192 1.37444678594553 5.89048622548087 0.785398163397448 4.71238898038469 1.17809724509617 5.39961237335746 0.98174770424681 4.22151512826129 1.37444678594553 6.08683576633023 0.785398163397448 4.90873852123405 1.17809724509617 5.59596191420682 0.98174770424681 4.41786466911065 1.37444678594553 5.10508806208342 1.17809724509617 5.79231145505619 0.98174770424681 4.61421420996001 1.37444678594553 5.30143760293278 1.17809724509617 5.98866099590555 0.98174770424681 4.81056375080937 1.37444678594553 5.49778714378214 1.17809724509617 6.18501053675491 0.98174770424681 5.00691329165874 1.37444678594553 5.6941366846315 1.17809724509617 5.2032628325081 1.37444678594553 5.89048622548087 1.17809724509617 5.39961237335746 1.37444678594553 6.08683576633023 1.17809724509617 5.59596191420682 1.37444678594553 5.79231145505619 1.37444678594553 5.98866099590555 1.37444678594553 6.18501053675491 1.37444678594553 35 20 1 35 21 20 36 35 1 37 36 1 38 37 1 39 35 36 39 21 35 40 38 1 41 39 36 41 36 37 42 40 1 43 41 37 43 37 38 44 42 1 45 22 21 45 23 22 45 21 39 46 43 38 46 38 40 47 44 1 48 45 39 48 39 41 49 40 42 49 46 40 50 47 1 51 48 41 51 41 43 52 49 42 52 42 44 53 50 1 54 51 43 54 43 46 55 52 44 55 44 47 56 23 45 56 45 48 57 53 1 58 46 49 58 54 46 59 47 50 59 55 47 60 56 48 60 48 51 61 57 1 62 49 52 62 58 49 63 59 50 63 50 53 64 51 54 64 60 51 65 61 1 66 62 52 66 52 55 67 24 23 67 25 24 67 23 56 68 53 57 68 63 53 69 64 54 69 54 58 70 65 1 71 55 59 71 66 55 72 56 60 72 67 56 73 68 57 73 57 61 74 58 62 74 69 58 75 70 1 76 71 59 76 59 63 77 60 64 77 72 60 78 61 65 78 73 61 79 62 66 79 74 62 80 75 1 81 76 63 81 63 68 82 64 69 82 77 64 83 78 65 83 65 70 84 66 71 84 79 66 85 25 67 85 67 72 86 1 2 86 80 1 87 81 68 87 68 73 88 69 74 88 82 69 89 83 70 89 70 75 90 71 76 90 84 71 91 85 72 91 72 77 92 86 2 93 87 73 93 73 78 94 88 74 94 74 79 95 75 80 95 89 75 96 90 76 96 76 81 97 77 82 97 91 77 98 92 2 99 93 78 99 78 83 100 94 79 100 79 84 101 25 85 101 26 25 101 27 26 102 80 86 102 95 80 103 96 81 103 81 87 104 82 88 104 97 82 105 98 2 106 99 83 106 83 89 107 84 90 107 100 84 108 85 91 108 101 85 109 86 92 109 102 86 110 87 93 110 103 87 111 104 88 111 88 94 112 105 2 113 89 95 113 106 89 114 90 96 114 107 90 115 91 97 115 108 91 116 109 92 116 92 98 117 110 93 117 93 99 118 94 100 118 111 94 119 112 2 120 113 95 120 95 102 121 114 96 121 96 103 122 97 104 122 115 97 123 116 98 123 98 105 124 99 106 124 117 99 125 118 100 125 100 107 126 27 101 126 101 108 127 119 2 128 120 102 128 102 109 129 121 103 129 103 110 130 122 104 130 104 111 131 123 105 131 105 112 132 124 106 132 106 113 133 107 114 133 125 107 134 108 115 134 126 108 135 127 2 136 128 109 136 109 116 137 129 110 137 110 117 138 130 111 138 111 118 139 131 112 139 112 119 140 132 113 140 113 120 141 114 121 141 133 114 142 115 122 142 134 115 143 135 2 144 136 116 144 116 123 145 137 117 145 117 124 146 138 118 146 118 125 147 28 27 147 29 28 147 27 126 148 119 127 148 139 119 149 140 120 149 120 128 150 121 129 150 141 121 151 122 130 151 142 122 152 143 2 153 123 131 153 144 123 154 124 132 154 145 124 155 125 133 155 146 125 156 126 134 156 147 126 157 148 127 157 127 135 158 128 136 158 149 128 159 150 129 159 129 137 160 130 138 160 151 130 161 152 2 162 131 139 162 153 131 163 154 132 163 132 140 164 155 133 164 133 141 165 156 134 165 134 142 166 157 135 166 135 143 167 158 136 167 136 144 168 137 145 168 159 137 169 160 138 169 138 146 170 161 2 171 139 148 171 162 139 172 140 149 172 163 140 173 141 150 173 164 141 174 142 151 174 165 142 175 143 152 175 166 143 176 167 144 176 144 153 177 145 154 177 168 145 178 169 146 178 146 155 179 147 156 179 29 147 180 170 2 181 148 157 181 171 148 182 149 158 182 172 149 183 173 150 183 150 159 184 151 160 184 174 151 185 152 161 185 175 152 186 153 162 186 176 153 187 154 163 187 177 154 188 155 164 188 178 155 189 179 156 189 156 165 190 180 2 191 157 166 191 181 157 192 182 158 192 158 167 193 183 159 193 159 168 194 184 160 194 160 169 195 185 161 195 161 170 196 162 171 196 186 162 197 187 163 197 163 172 198 164 173 198 188 164 199 189 165 199 165 174 200 190 2 201 191 166 201 166 175 202 167 176 202 192 167 203 193 168 203 168 177 204 194 169 204 169 178 205 30 29 205 31 30 205 29 179 206 195 170 206 170 180 207 196 171 207 171 181 208 172 182 208 197 172 209 198 173 209 173 183 210 174 184 210 199 174 211 2 3 211 3 4 211 200 2 212 201 175 212 175 185 213 176 186 213 202 176 214 203 177 214 177 187 215 204 178 215 178 188 216 179 189 216 205 179 217 180 190 217 206 180 218 181 191 218 207 181 219 182 192 219 208 182 220 183 193 220 209 183 221 184 194 221 210 184 222 185 195 222 212 185 223 186 196 223 213 186 224 214 187 224 187 197 225 215 188 225 188 198 226 216 189 226 189 199 227 217 190 227 190 200 228 218 191 228 191 201 229 192 202 229 219 192 230 193 203 230 220 193 231 194 204 231 221 194 232 222 195 232 195 206 233 223 196 233 196 207 234 224 197 234 197 208 235 225 198 235 198 209 236 226 199 236 199 210 237 227 200 237 211 4 237 200 211 238 228 201 238 201 212 239 229 202 239 202 213 240 230 203 240 203 214 241 204 215 241 231 204 242 205 216 242 31 205 243 206 217 243 232 206 244 207 218 244 233 207 245 208 219 245 234 208 246 235 209 246 209 220 247 236 210 247 210 221 248 238 212 248 212 222 249 213 223 249 239 213 250 240 214 250 214 224 251 215 225 251 241 215 252 242 216 252 216 226 253 217 227 253 243 217 254 244 218 254 218 228 255 245 219 255 219 229 256 220 230 256 246 220 257 221 231 257 247 221 258 222 232 258 248 222 259 223 233 259 249 223 260 250 224 260 224 234 261 251 225 261 225 235 262 252 226 262 226 236 263 227 237 263 253 227 264 254 228 264 228 238 265 255 229 265 229 239 266 256 230 266 230 240 267 257 231 267 231 241 268 32 31 268 33 32 268 31 242 269 258 232 269 232 243 270 259 233 270 233 244 271 260 234 271 234 245 272 261 235 272 235 246 273 262 236 273 236 247 274 4 5 274 5 6 274 237 4 274 263 237 275 238 248 275 264 238 276 239 249 276 265 239 277 240 250 277 266 240 278 241 251 278 267 241 279 268 242 279 242 252 280 269 243 280 243 253 281 244 254 281 270 244 282 271 245 282 245 255 283 272 246 283 246 256 284 247 257 284 273 247 285 275 248 285 248 258 286 249 259 286 276 249 287 250 260 287 277 250 288 278 251 288 251 261 289 279 252 289 252 262 290 253 263 290 280 253 291 254 264 291 281 254 292 282 255 292 255 265 293 256 266 293 283 256 294 257 267 294 284 257 295 285 258 295 258 269 296 259 270 296 286 259 297 287 260 297 260 271 298 288 261 298 261 272 299 289 262 299 262 273 300 290 263 300 274 6 300 263 274 301 291 264 301 264 275 302 292 265 302 265 276 303 293 266 303 266 277 304 294 267 304 267 278 305 33 268 305 268 279 306 295 269 306 269 280 307 296 270 307 270 281 308 297 271 308 271 282 309 272 283 309 298 272 310 273 284 310 299 273 311 301 275 311 275 285 312 302 276 312 276 286 313 277 287 313 303 277 314 304 278 314 278 288 315 305 279 315 279 289 316 280 290 316 306 280 317 307 281 317 281 291 318 282 292 318 308 282 319 309 283 319 283 293 320 310 284 320 284 294 321 311 285 321 285 295 322 286 296 322 312 286 323 313 287 323 287 297 324 288 298 324 314 288 325 289 299 325 315 289 326 290 300 326 316 290 327 317 291 327 291 301 328 318 292 328 292 302 329 319 293 329 293 303 330 294 304 330 320 294 331 34 33 331 19 34 331 33 305 332 295 306 332 321 295 333 322 296 333 296 307 334 323 297 334 297 308 335 324 298 335 298 309 336 325 299 336 299 310 337 6 7 337 7 8 337 300 6 337 326 300 338 327 301 338 301 311 339 328 302 339 302 312 340 329 303 340 303 313 341 330 304 341 304 314 342 331 305 342 19 331 342 305 315 343 306 316 343 332 306 344 307 317 344 333 307 345 334 308 345 308 318 346 335 309 346 309 319 347 310 320 347 336 310 348 338 311 348 311 321 349 312 322 349 339 312 350 313 323 350 340 313 351 314 324 351 341 314 352 315 325 352 342 315 352 19 342 353 343 316 353 316 326 354 317 327 354 344 317 355 318 328 355 345 318 356 319 329 356 346 319 357 320 330 357 347 320 358 321 332 358 348 321 359 349 322 359 322 333 360 350 323 360 323 334 361 324 335 361 351 324 362 352 325 362 325 336 362 19 352 363 353 326 363 337 8 363 326 337 364 354 327 364 327 338 365 328 339 365 355 328 366 329 340 366 356 329 367 330 341 367 357 330 368 358 332 368 332 343 369 359 333 369 333 344 370 334 345 370 360 334 371 361 335 371 335 346 372 362 336 372 336 347 372 19 362 373 364 338 373 338 348 374 365 339 374 339 349 375 340 350 375 366 340 376 341 351 376 367 341 377 368 343 377 343 353 378 344 354 378 369 344 379 345 355 379 370 345 380 371 346 380 346 356 381 19 372 381 372 347 381 347 357 382 348 358 382 373 348 383 374 349 383 349 359 384 350 360 384 375 350 385 376 351 385 351 361 386 353 363 386 377 353 387 354 364 387 378 354 388 355 365 388 379 355 389 380 356 389 356 366 390 19 381 390 381 357 390 357 367 391 382 358 391 358 368 392 359 369 392 383 359 393 360 370 393 384 360 394 361 371 394 385 361 395 8 9 395 386 363 395 9 10 395 363 8 396 387 364 396 364 373 397 388 365 397 365 374 398 389 366 398 366 375 399 390 367 399 367 376 399 19 390 400 391 368 400 368 377 401 392 369 401 369 378 402 393 370 402 370 379 403 394 371 403 371 380 404 396 373 404 373 382 405 374 383 405 397 374 406 375 384 406 398 375 407 19 399 407 399 376 407 376 385 408 377 386 408 400 377 409 378 387 409 401 378 410 402 379 410 379 388 411 403 380 411 380 389 412 404 382 412 382 391 413 383 392 413 405 383 414 384 393 414 406 384 415 19 407 415 385 394 415 407 385 416 386 395 416 395 10 416 408 386 417 387 396 417 409 387 418 410 388 418 388 397 419 389 398 419 411 389 420 412 391 420 391 400 421 392 401 421 413 392 422 393 402 422 414 393 423 415 394 423 394 403 423 19 415 424 417 396 424 396 404 425 418 397 425 397 405 426 419 398 426 398 406 427 420 400 427 400 408 428 421 401 428 401 409 429 402 410 429 422 402 430 19 423 430 423 403 430 403 411 431 424 404 431 404 412 432 425 405 432 405 413 433 426 406 433 406 414 434 427 408 434 408 416 435 428 409 435 409 417 436 429 410 436 410 418 437 411 419 437 19 430 437 430 411 438 431 412 438 412 420 439 432 413 439 413 421 440 433 414 440 414 422 441 10 11 441 11 12 441 434 416 441 416 10 442 435 417 442 417 424 443 418 425 443 436 418 444 419 426 444 19 437 444 437 419 445 420 427 445 438 420 446 421 428 446 439 421 447 440 422 447 422 429 448 442 424 448 424 431 449 443 425 449 425 432 450 19 444 450 426 433 450 444 426 451 427 434 451 445 427 452 446 428 452 428 435 453 429 436 453 447 429 454 431 438 454 448 431 455 432 439 455 449 432 456 433 440 456 19 450 456 450 433 457 451 434 457 441 12 457 434 441 458 452 435 458 435 442 459 453 436 459 436 443 460 438 445 460 454 438 461 455 439 461 439 446 462 19 456 462 18 19 462 440 447 462 456 440 463 458 442 463 442 448 464 459 443 464 443 449 465 445 451 465 460 445 466 446 452 466 461 446 467 18 462 467 462 447 467 447 453 468 448 454 468 463 448 469 449 455 469 464 449 470 465 451 470 451 457 471 466 452 471 452 458 472 453 459 472 467 453 472 18 467 473 454 460 473 468 454 474 455 461 474 469 455 475 12 13 475 13 14 475 457 12 475 470 457 476 458 463 476 471 458 477 459 464 477 18 472 477 472 459 478 460 465 478 473 460 479 461 466 479 474 461 480 463 468 480 476 463 481 464 469 481 18 477 481 477 464 482 465 470 482 478 465 483 479 466 483 466 471 484 480 468 484 468 473 485 469 474 485 18 481 485 481 469 486 475 14 486 470 475 486 482 470 487 483 471 487 471 476 488 484 473 488 473 478 489 18 485 489 474 479 489 485 474 490 487 476 490 476 480 491 488 478 491 478 482 492 479 483 492 489 479 492 18 489 493 490 480 493 480 484 494 482 486 494 491 482 495 18 492 495 492 483 495 483 487 496 493 484 496 484 488 497 14 15 497 15 16 497 494 486 497 486 14 498 487 490 498 495 487 498 18 495 499 496 488 499 488 491 500 18 498 500 490 493 500 498 490 501 499 491 501 491 494 502 493 496 502 500 493 502 18 500 503 497 16 503 494 497 503 501 494 504 502 496 504 496 499 504 18 502 505 499 501 505 18 504 505 504 499 506 18 505 506 501 503 506 505 501 507 16 17 507 17 18 507 18 506 507 503 16 507 506 503 

TShapes 10
Ve
1e-07
-3.67394039744206e-17 -0.2 0
0 0

0101101
*
Ed
 1e-07 1 1 1
2  1 1 0 0 6.28318530717959
6  1 1 0
0

0101000
+10 3 -10 3 *
Ve
1e-07
6.12323399573676e-17 0.2 0
0 0

0101101
*
Ed
 1e-07 1 1 1
2  2 1 0 0 6.28318530717959
6  2 1 0
0

0101000
+8 3 -8 3 *
Ed
 1e-07 1 1 0
1  1 0 4.71238898038469 7.85398163397448
3  3 4CN 1 8 4.71238898038469 7.85398163397448
7  3 4 1 8
0

0101000
+10 9 -8 9 *
Wi

0101100
+9 0 -7 0 -6 7 +6 7 *
Fa
0  1e-07 1 0
2  1
0111000
+5 0 *
Sh

0101100
+4 0 *
So

0100000
-3 0 *
Co

1100000
+2 1 *

+1 0 