DBRep_DrawableShape

CASCADE Topology V1, (c) Matra-Datavision
Locations 28
1
              1               0               0               0 
              0               1               0               0 
              0               0               1               0 
1
              1               0               0               0 
              0               1               0               0 
              0               0               1               0 
1
              1               0               0               0 
              0               1               0               0 
              0               0               1               0 
2  2 1 3 -1 0
1
              1               0               0               0 
              0               1               0               0 
              0               0               1               0 
2  5 -1 3 1 2 -1 0
1
              1               0               0               0 
              0               1               0               0 
              0               0               1               0 
1
              1               0               0               0 
              0               1               0               0 
              0               0               1               0 
1
              1               0               0               0 
              0               1               0               0 
              0               0               1               0 
2  7 1 8 1 9 -1 0
2  9 1 8 -1 7 -1 0
2  3 1 2 -1 9 1 8 -1 7 -1 0
2  5 -1 3 1 2 -1 9 1 8 -1 7 -1 0
1
              1               0               0               0 
              0               1               0               0 
              0               0               1            0.06 
2  7 1 8 1 9 -1 14 1 0
2  14 -1 9 1 8 -1 7 -1 0
2  3 1 2 -1 14 -1 9 1 8 -1 7 -1 0
2  5 -1 3 1 2 -1 14 -1 9 1 8 -1 7 -1 0
2  9 -1 2 1 3 -1 0
2  7 1 8 1 9 -1 2 1 3 -1 0
2  5 -1 0
2  9 -1 14 1 2 1 3 -1 0
2  7 1 8 1 9 -1 14 1 2 1 3 -1 0
1
              1               0               0               0 
              0               1               0               0 
              0               0               1               0 
1
              1               0               0               0 
              0               1               0               0 
              0               0               1            0.06 
2  24 1 25 1 3 -1 0
2  3 1 25 -1 24 -1 0
2  5 -1 3 1 25 -1 24 -1 0
Curve2ds 20
1 1.5707963267948966 0 0 -1 
1 1.5707963267948966 0 0 -1 
1 0 0 0 -1 
1 0 0 1 0 
1 0 -0.059999999999999998 1 0 
1 3.1415926535897936 0 0 -1 
1 0 0 1 0 
1 0 -0.059999999999999998 1 0 
1 0 0 1 0 
1 0 0 1 0 
1 0 -0.059999999999999998 1 0 
1 0 -0.059999999999999998 1 0 
1 0 -0.059999999999999998 1 0 
1 0 0 1 0 
1 6.2831853071795862 0 0 -1 
1 3.1415926535897936 0 0 -1 
1 4.7123889803846897 0 0 -1 
1 4.7123889803846897 0 0 -1 
1 0 0 0 -1 
1 6.2831853071795862 0 0 -1 
Curves 27
1 0.074999999999999997 0.044999999999999998 0 0 0 1 
1 -0.074999999999999997 0.044999999999999998 0 0 0 1 
1 0.074999999999999997 0.044999999999999998 0 -1 0 0 
1 0.074999999999999997 0.044999999999999998 0 -1 0 0 
1 0.089999999999999997 0.029999999999999999 0 0 0 1 
2 0.074999999999999997 0.029999999999999999 0 0 0 1 1 0 0 0 1 0 0.014999999999999999
2 0.074999999999999997 0.029999999999999999 0 0 0 1 1 0 0 0 1 0 0.014999999999999999
1 -0.089999999999999997 0.029999999999999995 0 0 0 1 
2 -0.074999999999999997 0.029999999999999999 0 0 0 1 1 0 0 0 1 0 0.014999999999999999
2 -0.074999999999999997 0.029999999999999999 0 0 0 1 1 0 0 0 1 0 0.014999999999999999
1 0.089999999999999997 -0.030000000000000006 0 0 1 0 
1 -0.089999999999999997 0.029999999999999995 0 0 -1 0 
2 0.074999999999999997 -0.030000000000000002 0 0 0 1 1 0 0 0 1 0 0.014999999999999999
2 -0.074999999999999997 -0.030000000000000002 0 0 0 1 1 0 0 0 1 0 0.014999999999999999
1 -0.074999999999999997 -0.044999999999999998 0 1 0 0 
2 0 0 0 0 0 1 1 0 0 0 1 0 0.029999999999999999
1 0.089999999999999997 -0.030000000000000006 0 0 1 0 
1 -0.089999999999999997 0.029999999999999995 0 0 -1 0 
2 0.074999999999999997 -0.030000000000000002 0 0 0 1 1 0 0 0 1 0 0.014999999999999999
2 -0.074999999999999997 -0.030000000000000002 0 0 0 1 1 0 0 0 1 0 0.014999999999999999
1 -0.074999999999999997 -0.044999999999999998 0 1 0 0 
2 0 0 0 0 0 1 1 0 0 0 1 0 0.029999999999999999
1 0.089999999999999997 -0.030000000000000006 0 0 0 1 
1 -0.089999999999999997 -0.030000000000000006 0 0 0 1 
1 0.074999999999999997 -0.044999999999999998 0 0 0 1 
1 -0.074999999999999997 -0.044999999999999998 0 0 0 1 
1 0.029999999999999999 0 0.059999999999999998 -0 -0 -1 
Polygon3D 0
PolygonOnTriangulations 54
2 10 9 
p 0.00055 1 0 0.06 
2 1 2 
p 0.00055 1 0 0.06 
2 1 2 
p 0.00055 1 0 0.06 
2 4 3 
p 0.00055 1 0 0.06 
2 1 4 
p 0.00055 1 0 0.15 
2 1 2 
p 0.00055 1 0 0.15 
2 2 3 
p 0.00055 1 0 0.15 
2 1 2 
p 0.00055 1 0 0.15 
2 1 2 
p 0.00055 1 0 0.06 
2 4 3 
p 0.00055 1 0 0.06 
8 1 11 12 13 14 15 16 10 
p 0.00055 1 0 0.224399475256414 0.448798950512828 0.673198425769241 0.897597901025655 1.12199737628207 1.34639685153848 1.5707963267949 
8 26 27 28 29 30 31 32 1 
p 0.00055 1 0 0.224399475256414 0.448798950512828 0.673198425769241 0.897597901025655 1.12199737628207 1.34639685153848 1.5707963267949 
8 2 3 4 5 6 7 8 9 
p 0.00055 1 0 0.224399475256414 0.448798950512828 0.673198425769241 0.897597901025655 1.12199737628207 1.34639685153848 1.5707963267949 
8 26 27 28 29 30 31 32 1 
p 0.00055 1 0 0.224399475256414 0.448798950512828 0.673198425769241 0.897597901025655 1.12199737628207 1.34639685153848 1.5707963267949 
2 10 9 
p 0.00055 1 0 0.06 
2 1 2 
p 0.00055 1 0 0.06 
8 1 11 12 13 14 15 16 10 
p 0.00055 1 1.5707963267949 1.79519580205131 2.01959527730772 2.24399475256414 2.46839422782055 2.69279370307697 2.91719317833338 3.14159265358979 
8 2 3 4 5 6 7 8 9 
p 0.00055 1 1.5707963267949 1.79519580205131 2.01959527730772 2.24399475256414 2.46839422782055 2.69279370307697 2.91719317833338 3.14159265358979 
8 2 3 4 5 6 7 8 9 
p 0.00055 1 1.5707963267949 1.79519580205131 2.01959527730772 2.24399475256414 2.46839422782055 2.69279370307697 2.91719317833338 3.14159265358979 
8 2 3 4 5 6 7 8 9 
p 0.00055 1 1.5707963267949 1.79519580205131 2.01959527730772 2.24399475256414 2.46839422782055 2.69279370307697 2.91719317833338 3.14159265358979 
2 25 26 
p 0.00055 1 0 0.06 
2 1 4 
p 0.00055 1 0 0.06 
2 9 10 
p 0.00055 1 0 0.06 
2 1 4 
p 0.00055 1 0 0.06 
8 1 11 12 13 14 15 16 10 
p 0.00055 1 4.71238898038469 4.9367884556411 5.16118793089752 5.38558740615393 5.60998688141034 5.83438635666676 6.05878583192317 6.28318530717959 
8 18 19 20 21 22 23 24 25 
p 0.00055 1 4.71238898038469 4.9367884556411 5.16118793089752 5.38558740615393 5.60998688141034 5.83438635666676 6.05878583192317 6.28318530717959 
8 1 11 12 13 14 15 16 10 
p 0.00055 1 3.14159265358979 3.36599212884621 3.59039160410262 3.81479107935903 4.03919055461545 4.26359002987186 4.48798950512828 4.71238898038469 
8 10 11 12 13 14 15 16 17 
p 0.00055 1 3.14159265358979 3.36599212884621 3.59039160410262 3.81479107935903 4.03919055461545 4.26359002987186 4.48798950512828 4.71238898038469 
2 17 18 
p 0.00055 1 0 0.15 
2 1 4 
p 0.00055 1 0 0.15 
27 28 29 30 31 32 33 34 35 36 37 38 39 40 41 42 43 44 45 46 47 48 49 50 51 52 53 54 
p 0.00055 1 0 0.241660973353061 0.483321946706122 0.724982920059183 0.966643893412244 1.2083048667653 1.44996584011837 1.69162681347143 1.93328778682449 2.17494876017755 2.41660973353061 2.65827070688367 2.89993168023673 3.14159265358979 3.38325362694285 3.62491460029591 3.86657557364897 4.10823654700204 4.3498975203551 4.59155849370816 4.83321946706122 5.07488044041428 5.31654141376734 5.5582023871204 5.79986336047346 6.04152433382652 6.28318530717959 
27 33 34 35 36 37 38 39 40 41 42 43 44 45 46 47 48 49 50 51 52 53 54 55 56 57 58 33 
p 0.00055 1 0 0.241660973353061 0.483321946706122 0.724982920059183 0.966643893412244 1.2083048667653 1.44996584011837 1.69162681347143 1.93328778682449 2.17494876017755 2.41660973353061 2.65827070688367 2.89993168023673 3.14159265358979 3.38325362694285 3.62491460029591 3.86657557364897 4.10823654700204 4.3498975203551 4.59155849370816 4.83321946706122 5.07488044041428 5.31654141376734 5.5582023871204 5.79986336047346 6.04152433382652 6.28318530717959 
2 25 26 
p 0.00055 1 0 0.06 
2 2 3 
p 0.00055 1 0 0.06 
2 9 10 
p 0.00055 1 0 0.06 
2 2 3 
p 0.00055 1 0 0.06 
8 2 3 4 5 6 7 8 9 
p 0.00055 1 4.71238898038469 4.9367884556411 5.16118793089752 5.38558740615393 5.60998688141034 5.83438635666676 6.05878583192317 6.28318530717959 
8 18 19 20 21 22 23 24 25 
p 0.00055 1 4.71238898038469 4.9367884556411 5.16118793089752 5.38558740615393 5.60998688141034 5.83438635666676 6.05878583192317 6.28318530717959 
8 2 3 4 5 6 7 8 9 
p 0.00055 1 3.14159265358979 3.36599212884621 3.59039160410262 3.81479107935903 4.03919055461545 4.26359002987186 4.48798950512828 4.71238898038469 
8 10 11 12 13 14 15 16 17 
p 0.00055 1 3.14159265358979 3.36599212884621 3.59039160410262 3.81479107935903 4.03919055461545 4.26359002987186 4.48798950512828 4.71238898038469 
2 17 18 
p 0.00055 1 0 0.15 
2 2 3 
p 0.00055 1 0 0.15 
27 1 2 3 4 5 6 7 8 9 10 11 12 13 14 15 16 17 18 19 20 21 22 23 24 25 26 27 
p 0.00055 1 0 0.241660973353061 0.483321946706122 0.724982920059183 0.966643893412244 1.2083048667653 1.44996584011837 1.69162681347143 1.93328778682449 2.17494876017755 2.41660973353061 2.65827070688367 2.89993168023673 3.14159265358979 3.38325362694285 3.62491460029591 3.86657557364897 4.10823654700204 4.3498975203551 4.59155849370816 4.83321946706122 5.07488044041428 5.31654141376734 5.5582023871204 5.79986336047346 6.04152433382652 6.28318530717959 
27 33 34 35 36 37 38 39 40 41 42 43 44 45 46 47 48 49 50 51 52 53 54 55 56 57 58 33 
p 0.00055 1 0 0.241660973353061 0.483321946706122 0.724982920059183 0.966643893412244 1.2083048667653 1.44996584011837 1.69162681347143 1.93328778682449 2.17494876017755 2.41660973353061 2.65827070688367 2.89993168023673 3.14159265358979 3.38325362694285 3.62491460029591 3.86657557364897 4.10823654700204 4.3498975203551 4.59155849370816 4.83321946706122 5.07488044041428 5.31654141376734 5.5582023871204 5.79986336047346 6.04152433382652 6.28318530717959 
2 10 9 
p 0.00055 1 0 0.06 
2 1 2 
p 0.00055 1 0 0.06 
2 1 2 
p 0.00055 1 0 0.06 
2 4 3 
p 0.00055 1 0 0.06 
2 1 2 
p 0.00055 1 0 0.06 
2 4 3 
p 0.00055 1 0 0.06 
2 10 9 
p 0.00055 1 0 0.06 
2 1 2 
p 0.00055 1 0 0.06 
2 1 28 
p 0.00055 1 0 0.06 
2 27 54 
p 0.00055 1 0 0.06 
Surfaces 11
1 0.074999999999999997 0.044999999999999998 0 0 -1 0 -1 0 0 -0 -0 -1 
2 0.074999999999999997 0.029999999999999999 0 -0 -0 -1 1 0 0 0 1 0 0.014999999999999999
2 -0.074999999999999997 0.029999999999999999 0 -0 -0 -1 1 0 0 0 1 0 0.014999999999999999
1 0.089999999999999997 -0.030000000000000006 0 -1 0 0 0 1 0 0 0 -1 
1 -0.089999999999999997 0.029999999999999995 0 1 0 0 0 -1 0 0 0 -1 
1 2.8521914413120143e-18 0 0 0 0 1 1 0 0 0 1 0 
2 0.074999999999999997 -0.030000000000000002 0 -0 -0 -1 1 0 0 0 1 0 0.014999999999999999
2 -0.074999999999999997 -0.030000000000000002 0 -0 -0 -1 1 0 0 0 1 0 0.014999999999999999
2 0 0 0.059999999999999998 0 0 1 1 0 0 0 1 0 0.029999999999999999
1 2.8521914413120143e-18 0 0 0 0 1 1 0 0 0 1 0 
1 -0.074999999999999997 -0.044999999999999998 0 0 1 0 1 0 0 0 0 -1 
Triangulations 11
4 2 1 0.00055
0.075 0.045 0 0.075 0.045 0.06 -0.075 0.045 0.06 -0.075 0.045 0 0 0 0 -0.06 0.15 -0.06 0.15 0 4 1 2 4 2 3 
16 14 1 0.00055
0.09 0.03 0 0.09 0.03 0.06 0.0896239186827273 0.0333378140093447 0.06 0.0885145330185363 0.0365082560867634 0.06 0.0867274722370204 0.039352347027881 0.06 0.084352347027881 0.0417274722370204 0.06 0.0815082560867634 0.0435145330185363 0.06 0.0783378140093447 0.0446239186827274 0.06 0.075 0.045 0.06 0.075 0.045 0 0.0896239186827273 0.0333378140093447 0 0.0885145330185363 0.0365082560867634 0 0.0867274722370204 0.039352347027881 0 0.084352347027881 0.0417274722370204 0 0.0815082560867634 0.0435145330185363 0 0.0783378140093447 0.0446239186827274 0 0 0 0 -0.06 0.224399475256414 -0.06 0.448798950512828 -0.06 0.673198425769241 -0.06 0.897597901025655 -0.06 1.12199737628207 -0.06 1.34639685153848 -0.06 1.5707963267949 -0.06 1.5707963267949 0 0.224399475256414 0 0.448798950512828 0 0.673198425769241 0 0.897597901025655 0 1.12199737628207 0 1.34639685153848 0 11 1 2 11 2 3 12 3 4 12 11 3 13 4 5 13 12 4 14 5 6 14 13 5 15 6 7 15 14 6 16 7 8 16 15 7 10 8 9 10 16 8 
16 14 1 0.00055
-0.075 0.045 0 -0.075 0.045 0.06 -0.0783378140093447 0.0446239186827274 0.06 -0.0815082560867634 0.0435145330185363 0.06 -0.084352347027881 0.0417274722370204 0.06 -0.0867274722370204 0.039352347027881 0.06 -0.0885145330185363 0.0365082560867634 0.06 -0.0896239186827273 0.0333378140093447 0.06 -0.09 0.03 0.06 -0.09 0.03 0 -0.0783378140093447 0.0446239186827274 0 -0.0815082560867634 0.0435145330185363 0 -0.084352347027881 0.0417274722370204 0 -0.0867274722370204 0.039352347027881 0 -0.0885145330185363 0.0365082560867634 0 -0.0896239186827273 0.0333378140093447 0 1.5707963267949 0 1.5707963267949 -0.06 1.79519580205131 -0.06 2.01959527730772 -0.06 2.24399475256414 -0.06 2.46839422782055 -0.06 2.69279370307697 -0.06 2.91719317833338 -0.06 3.14159265358979 -0.06 3.14159265358979 0 1.79519580205131 0 2.01959527730772 0 2.24399475256414 0 2.46839422782055 0 2.69279370307697 0 2.91719317833338 0 11 1 2 11 2 3 12 3 4 12 11 3 13 4 5 13 12 4 14 5 6 14 13 5 15 6 7 15 14 6 16 7 8 16 15 7 10 8 9 10 16 8 
58 58 1 0.00055
0.075 0.045 0 -0.075 0.045 0 -0.0783378140093447 0.0446239186827274 0 -0.0815082560867634 0.0435145330185363 0 -0.084352347027881 0.0417274722370204 0 -0.0867274722370204 0.039352347027881 0 -0.0885145330185363 0.0365082560867634 0 -0.0896239186827273 0.0333378140093447 0 -0.09 0.03 0 -0.09 -0.03 0 -0.0896239186827273 -0.0333378140093447 0 -0.0885145330185363 -0.0365082560867634 0 -0.0867274722370204 -0.039352347027881 0 -0.084352347027881 -0.0417274722370204 0 -0.0815082560867634 -0.0435145330185363 0 -0.0783378140093447 -0.0446239186827274 0 -0.075 -0.045 0 0.075 -0.045 0 0.0783378140093447 -0.0446239186827274 0 0.0815082560867634 -0.0435145330185363 0 0.084352347027881 -0.0417274722370204 0 0.0867274722370204 -0.039352347027881 0 0.0885145330185363 -0.0365082560867634 0 0.0896239186827273 -0.0333378140093447 0 0.09 -0.03 0 0.09 0.03 0 0.0896239186827273 0.0333378140093447 0 0.0885145330185363 0.0365082560867634 0 0.0867274722370204 0.039352347027881 0 0.084352347027881 0.0417274722370204 0 0.0815082560867634 0.0435145330185363 0 0.0783378140093447 0.0446239186827274 0 0.03 0 0 0.0291282545227816 0.00717946992862673 0 0.0265636807695963 0.0139416951613131 0 0.022455322445133 0.0198936797472239 0 0.0170419424019347 0.0246895159768097 0 0.0106381466112761 0.0280504872805624 0 0.0036161004076597 0.0297812662229416 0 -0.00361610040765969 0.0297812662229416 0 -0.0106381466112761 0.0280504872805624 0 -0.0170419424019347 0.0246895159768097 0 -0.022455322445133 0.0198936797472239 0 -0.0265636807695963 0.0139416951613131 0 -0.0291282545227816 0.00717946992862676 0 -0.03 3.03192929884458e-17 0 -0.0291282545227816 -0.0071794699286267 0 -0.0265636807695963 -0.013941695161313 0 -0.0224553224451331 -0.0198936797472238 0 -0.0170419424019347 -0.0246895159768097 0 -0.0106381466112761 -0.0280504872805624 0 -0.00361610040765976 -0.0297812662229416 0 0.00361610040765962 -0.0297812662229416 0 0.010638146611276 -0.0280504872805625 0 0.0170419424019346 -0.0246895159768097 0 0.022455322445133 -0.0198936797472239 0 0.0265636807695963 -0.0139416951613131 0 0.0291282545227815 -0.00717946992862684 0 0.075 0.045 -0.075 0.045 -0.0783378140093447 0.0446239186827273 -0.0815082560867634 0.0435145330185363 -0.084352347027881 0.0417274722370204 -0.0867274722370204 0.039352347027881 -0.0885145330185363 0.0365082560867634 -0.0896239186827273 0.0333378140093447 -0.09 0.03 -0.09 -0.03 -0.0896239186827273 -0.0333378140093447 -0.0885145330185363 -0.0365082560867634 -0.0867274722370204 -0.039352347027881 -0.084352347027881 -0.0417274722370204 -0.0815082560867634 -0.0435145330185363 -0.0783378140093447 -0.0446239186827274 -0.075 -0.045 0.075 -0.045 0.0783378140093447 -0.0446239186827274 0.0815082560867633 -0.0435145330185363 0.084352347027881 -0.0417274722370204 0.0867274722370205 -0.039352347027881 0.0885145330185363 -0.0365082560867634 0.0896239186827273 -0.0333378140093447 0.09 -0.03 0.09 0.03 0.0896239186827273 0.0333378140093447 0.0885145330185363 0.0365082560867634 0.0867274722370205 0.039352347027881 0.084352347027881 0.0417274722370204 0.0815082560867634 0.0435145330185363 0.0783378140093447 0.0446239186827273 0.03 -6.93889390390723e-18 0.0291282545227816 0.00717946992862673 0.0265636807695963 0.0139416951613131 0.022455322445133 0.0198936797472238 0.0170419424019347 0.0246895159768097 0.0106381466112761 0.0280504872805624 0.00361610040765969 0.0297812662229416 -0.00361610040765969 0.0297812662229416 -0.0106381466112761 0.0280504872805624 -0.0170419424019347 0.0246895159768097 -0.022455322445133 0.0198936797472239 -0.0265636807695963 0.0139416951613131 -0.0291282545227816 0.00717946992862675 -0.03 2.77555756156289e-17 -0.0291282545227816 -0.0071794699286267 -0.0265636807695963 -0.013941695161313 -0.0224553224451331 -0.0198936797472238 -0.0170419424019347 -0.0246895159768097 -0.0106381466112761 -0.0280504872805624 -0.00361610040765976 -0.0297812662229416 0.00361610040765961 -0.0297812662229416 0.010638146611276 -0.0280504872805625 0.0170419424019346 -0.0246895159768097 0.022455322445133 -0.0198936797472239 0.0265636807695963 -0.0139416951613131 0.0291282545227815 -0.00717946992862684 17 10 11 17 11 12 17 12 13 17 13 14 17 14 15 17 15 16 50 49 17 48 17 49 51 50 17 47 10 17 47 17 48 52 51 17 2 3 4 2 4 5 2 5 6 2 6 7 2 7 8 2 8 9 46 9 10 46 10 47 45 2 9 45 9 46 44 2 45 43 2 44 42 2 43 41 2 42 40 2 41 18 52 17 18 53 52 18 54 53 18 55 54 18 56 55 18 57 56 18 58 57 20 18 19 21 18 20 23 21 22 24 21 23 25 58 18 25 18 21 25 21 24 25 33 58 1 35 34 1 36 35 1 37 36 1 38 37 1 39 38 26 1 34 26 34 33 26 33 25 30 26 27 30 27 28 30 28 29 30 31 32 30 32 1 30 1 26 1 2 40 1 40 39 
58 58 1 0.00055
0.075 0.045 0.06 -0.075 0.045 0.06 -0.0783378140093447 0.0446239186827274 0.06 -0.0815082560867634 0.0435145330185363 0.06 -0.084352347027881 0.0417274722370204 0.06 -0.0867274722370204 0.039352347027881 0.06 -0.0885145330185363 0.0365082560867634 0.06 -0.0896239186827273 0.0333378140093447 0.06 -0.09 0.03 0.06 -0.09 -0.03 0.06 -0.0896239186827273 -0.0333378140093447 0.06 -0.0885145330185363 -0.0365082560867634 0.06 -0.0867274722370204 -0.039352347027881 0.06 -0.084352347027881 -0.0417274722370204 0.06 -0.0815082560867634 -0.0435145330185363 0.06 -0.0783378140093447 -0.0446239186827274 0.06 -0.075 -0.045 0.06 0.075 -0.045 0.06 0.0783378140093447 -0.0446239186827274 0.06 0.0815082560867634 -0.0435145330185363 0.06 0.084352347027881 -0.0417274722370204 0.06 0.0867274722370204 -0.039352347027881 0.06 0.0885145330185363 -0.0365082560867634 0.06 0.0896239186827273 -0.0333378140093447 0.06 0.09 -0.03 0.06 0.09 0.03 0.06 0.0896239186827273 0.0333378140093447 0.06 0.0885145330185363 0.0365082560867634 0.06 0.0867274722370204 0.039352347027881 0.06 0.084352347027881 0.0417274722370204 0.06 0.0815082560867634 0.0435145330185363 0.06 0.0783378140093447 0.0446239186827274 0.06 0.03 0 0.06 0.0291282545227816 0.00717946992862673 0.06 0.0265636807695963 0.0139416951613131 0.06 0.022455322445133 0.0198936797472239 0.06 0.0170419424019347 0.0246895159768097 0.06 0.0106381466112761 0.0280504872805624 0.06 0.0036161004076597 0.0297812662229416 0.06 -0.00361610040765969 0.0297812662229416 0.06 -0.0106381466112761 0.0280504872805624 0.06 -0.0170419424019347 0.0246895159768097 0.06 -0.022455322445133 0.0198936797472239 0.06 -0.0265636807695963 0.0139416951613131 0.06 -0.0291282545227816 0.00717946992862676 0.06 -0.03 3.03192929884458e-17 0.06 -0.0291282545227816 -0.0071794699286267 0.06 -0.0265636807695963 -0.013941695161313 0.06 -0.0224553224451331 -0.0198936797472238 0.06 -0.0170419424019347 -0.0246895159768097 0.06 -0.0106381466112761 -0.0280504872805624 0.06 -0.00361610040765976 -0.0297812662229416 0.06 0.00361610040765962 -0.0297812662229416 0.06 0.010638146611276 -0.0280504872805625 0.06 0.0170419424019346 -0.0246895159768097 0.06 0.022455322445133 -0.0198936797472239 0.06 0.0265636807695963 -0.0139416951613131 0.06 0.0291282545227815 -0.00717946992862684 0.06 0.075 0.045 -0.075 0.045 -0.0783378140093447 0.0446239186827273 -0.0815082560867634 0.0435145330185363 -0.084352347027881 0.0417274722370204 -0.0867274722370204 0.039352347027881 -0.0885145330185363 0.0365082560867634 -0.0896239186827273 0.0333378140093447 -0.09 0.03 -0.09 -0.03 -0.0896239186827273 -0.0333378140093447 -0.0885145330185363 -0.0365082560867634 -0.0867274722370204 -0.039352347027881 -0.084352347027881 -0.0417274722370204 -0.0815082560867634 -0.0435145330185363 -0.0783378140093447 -0.0446239186827274 -0.075 -0.045 0.075 -0.045 0.0783378140093447 -0.0446239186827274 0.0815082560867633 -0.0435145330185363 0.084352347027881 -0.0417274722370204 0.0867274722370205 -0.039352347027881 0.0885145330185363 -0.0365082560867634 0.0896239186827273 -0.0333378140093447 0.09 -0.03 0.09 0.03 0.0896239186827273 0.0333378140093447 0.0885145330185363 0.0365082560867634 0.0867274722370205 0.039352347027881 0.084352347027881 0.0417274722370204 0.0815082560867634 0.0435145330185363 0.0783378140093447 0.0446239186827273 0.03 -6.93889390390723e-18 0.0291282545227816 0.00717946992862673 0.0265636807695963 0.0139416951613131 0.022455322445133 0.0198936797472238 0.0170419424019347 0.0246895159768097 0.0106381466112761 0.0280504872805624 0.00361610040765969 0.0297812662229416 -0.00361610040765969 0.0297812662229416 -0.0106381466112761 0.0280504872805624 -0.0170419424019347 0.0246895159768097 -0.022455322445133 0.0198936797472239 -0.0265636807695963 0.0139416951613131 -0.0291282545227816 0.00717946992862675 -0.03 2.77555756156289e-17 -0.0291282545227816 -0.0071794699286267 -0.0265636807695963 -0.013941695161313 -0.0224553224451331 -0.0198936797472238 -0.0170419424019347 -0.0246895159768097 -0.0106381466112761 -0.0280504872805624 -0.00361610040765976 -0.0297812662229416 0.00361610040765961 -0.0297812662229416 0.010638146611276 -0.0280504872805625 0.0170419424019346 -0.0246895159768097 0.022455322445133 -0.0198936797472239 0.0265636807695963 -0.0139416951613131 0.0291282545227815 -0.00717946992862684 17 10 11 17 11 12 17 12 13 17 13 14 17 14 15 17 15 16 50 49 17 48 17 49 51 50 17 47 10 17 47 17 48 52 51 17 2 3 4 2 4 5 2 5 6 2 6 7 2 7 8 2 8 9 46 9 10 46 10 47 45 2 9 45 9 46 44 2 45 43 2 44 42 2 43 41 2 42 40 2 41 18 52 17 18 53 52 18 54 53 18 55 54 18 56 55 18 57 56 18 58 57 20 18 19 21 18 20 23 21 22 24 21 23 25 58 18 25 18 21 25 21 24 25 33 58 1 35 34 1 36 35 1 37 36 1 38 37 1 39 38 26 1 34 26 34 33 26 33 25 30 26 27 30 27 28 30 28 29 30 31 32 30 32 1 30 1 26 1 2 40 1 40 39 
4 2 1 0.00055
0.09 -0.03 0 0.09 -0.03 0.06 0.09 0.03 0.06 0.09 0.03 0 0 0 0 -0.06 0.06 -0.06 0.06 0 4 1 2 4 2 3 
4 2 1 0.00055
-0.09 0.03 0 -0.09 0.03 0.06 -0.09 -0.03 0.06 -0.09 -0.03 0 0 0 0 -0.06 0.06 -0.06 0.06 0 4 1 2 4 2 3 
16 14 1 0.00055
0.075 -0.045 0 0.075 -0.045 0.06 0.0783378140093447 -0.0446239186827274 0.06 0.0815082560867634 -0.0435145330185363 0.06 0.084352347027881 -0.0417274722370204 0.06 0.0867274722370204 -0.039352347027881 0.06 0.0885145330185363 -0.0365082560867634 0.06 0.0896239186827273 -0.0333378140093447 0.06 0.09 -0.03 0.06 0.09 -0.03 0 0.0783378140093447 -0.0446239186827274 0 0.0815082560867634 -0.0435145330185363 0 0.084352347027881 -0.0417274722370204 0 0.0867274722370204 -0.039352347027881 0 0.0885145330185363 -0.0365082560867634 0 0.0896239186827273 -0.0333378140093447 0 4.71238898038469 0 4.71238898038469 -0.06 4.9367884556411 -0.06 5.16118793089752 -0.06 5.38558740615393 -0.06 5.60998688141034 -0.06 5.83438635666676 -0.06 6.05878583192317 -0.06 6.28318530717959 -0.06 6.28318530717959 0 4.9367884556411 0 5.16118793089752 0 5.38558740615393 0 5.60998688141034 0 5.83438635666676 0 6.05878583192317 0 11 1 2 11 2 3 12 3 4 12 11 3 13 4 5 13 12 4 14 5 6 14 13 5 15 6 7 15 14 6 16 7 8 16 15 7 10 8 9 10 16 8 
16 14 1 0.00055
-0.09 -0.03 0 -0.09 -0.03 0.06 -0.0896239186827273 -0.0333378140093447 0.06 -0.0885145330185363 -0.0365082560867634 0.06 -0.0867274722370204 -0.039352347027881 0.06 -0.084352347027881 -0.0417274722370204 0.06 -0.0815082560867634 -0.0435145330185363 0.06 -0.0783378140093447 -0.0446239186827274 0.06 -0.075 -0.045 0.06 -0.075 -0.045 0 -0.0896239186827273 -0.0333378140093447 0 -0.0885145330185363 -0.0365082560867634 0 -0.0867274722370204 -0.039352347027881 0 -0.084352347027881 -0.0417274722370204 0 -0.0815082560867634 -0.0435145330185363 0 -0.0783378140093447 -0.0446239186827274 0 3.14159265358979 0 3.14159265358979 -0.06 3.36599212884621 -0.06 3.59039160410262 -0.06 3.81479107935903 -0.06 4.03919055461545 -0.06 4.26359002987186 -0.06 4.48798950512828 -0.06 4.71238898038469 -0.06 4.71238898038469 0 3.36599212884621 0 3.59039160410262 0 3.81479107935903 0 4.03919055461545 0 4.26359002987186 0 4.48798950512828 0 11 1 2 11 2 3 12 3 4 12 11 3 13 4 5 13 12 4 14 5 6 14 13 5 15 6 7 15 14 6 16 7 8 16 15 7 10 8 9 10 16 8 
4 2 1 0.00055
-0.075 -0.045 0 -0.075 -0.045 0.06 0.075 -0.045 0.06 0.075 -0.045 0 0 0 0 -0.06 0.15 -0.06 0.15 0 4 1 2 4 2 3 
54 52 1 0.00055
0.03 0 0.06 0.0291282545227816 0.00717946992862673 0.06 0.0265636807695963 0.0139416951613131 0.06 0.022455322445133 0.0198936797472239 0.06 0.0170419424019347 0.0246895159768097 0.06 0.0106381466112761 0.0280504872805624 0.06 0.0036161004076597 0.0297812662229416 0.06 -0.00361610040765969 0.0297812662229416 0.06 -0.0106381466112761 0.0280504872805624 0.06 -0.0170419424019347 0.0246895159768097 0.06 -0.022455322445133 0.0198936797472239 0.06 -0.0265636807695963 0.0139416951613131 0.06 -0.0291282545227816 0.00717946992862676 0.06 -0.03 3.03192929884458e-17 0.06 -0.0291282545227816 -0.0071794699286267 0.06 -0.0265636807695963 -0.013941695161313 0.06 -0.0224553224451331 -0.0198936797472238 0.06 -0.0170419424019347 -0.0246895159768097 0.06 -0.0106381466112761 -0.0280504872805624 0.06 -0.00361610040765976 -0.0297812662229416 0.06 0.00361610040765962 -0.0297812662229416 0.06 0.010638146611276 -0.0280504872805625 0.06 0.0170419424019346 -0.0246895159768097 0.06 0.022455322445133 -0.0198936797472239 0.06 0.0265636807695963 -0.0139416951613131 0.06 0.0291282545227815 -0.00717946992862684 0.06 0.03 0 0.06 0.03 0 0 0.0291282545227816 0.00717946992862673 0 0.0265636807695963 0.0139416951613131 0 0.022455322445133 0.0198936797472239 0 0.0170419424019347 0.0246895159768097 0 0.0106381466112761 0.0280504872805624 0 0.0036161004076597 0.0297812662229416 0 -0.00361610040765969 0.0297812662229416 0 -0.0106381466112761 0.0280504872805624 0 -0.0170419424019347 0.0246895159768097 0 -0.022455322445133 0.0198936797472239 0 -0.0265636807695963 0.0139416951613131 0 -0.0291282545227816 0.00717946992862676 0 -0.03 3.03192929884458e-17 0 -0.0291282545227816 -0.0071794699286267 0 -0.0265636807695963 -0.013941695161313 0 -0.0224553224451331 -0.0198936797472238 0 -0.0170419424019347 -0.0246895159768097 0 -0.0106381466112761 -0.0280504872805624 0 -0.00361610040765976 -0.0297812662229416 0 0.00361610040765962 -0.0297812662229416 0 0.010638146611276 -0.0280504872805625 0 0.0170419424019346 -0.0246895159768097 0 0.022455322445133 -0.0198936797472239 0 0.0265636807695963 -0.0139416951613131 0 0.0291282545227815 -0.00717946992862684 0 0.03 0 0 0 0 0.241660973353061 0 0.483321946706122 0 0.724982920059183 0 0.966643893412244 0 1.2083048667653 0 1.44996584011837 0 1.69162681347143 0 1.93328778682449 0 2.17494876017755 0 2.41660973353061 0 2.65827070688367 0 2.89993168023673 0 3.14159265358979 0 3.38325362694285 0 3.62491460029591 0 3.86657557364897 0 4.10823654700204 0 4.3498975203551 0 4.59155849370816 0 4.83321946706122 0 5.07488044041428 0 5.31654141376734 0 5.5582023871204 0 5.79986336047346 0 6.04152433382652 0 6.28318530717959 0 0 -0.06 0.241660973353061 -0.06 0.483321946706122 -0.06 0.724982920059183 -0.06 0.966643893412244 -0.06 1.2083048667653 -0.06 1.44996584011837 -0.06 1.69162681347143 -0.06 1.93328778682449 -0.06 2.17494876017755 -0.06 2.41660973353061 -0.06 2.65827070688367 -0.06 2.89993168023673 -0.06 3.14159265358979 -0.06 3.38325362694285 -0.06 3.62491460029591 -0.06 3.86657557364897 -0.06 4.10823654700204 -0.06 4.3498975203551 -0.06 4.59155849370816 -0.06 4.83321946706122 -0.06 5.07488044041428 -0.06 5.31654141376734 -0.06 5.5582023871204 -0.06 5.79986336047346 -0.06 6.04152433382652 -0.06 6.28318530717959 -0.06 2 1 28 2 28 29 3 29 30 3 2 29 4 30 31 4 3 30 5 31 32 5 4 31 6 32 33 6 5 32 7 33 34 7 6 33 8 34 35 8 7 34 9 35 36 9 8 35 10 36 37 10 9 36 11 37 38 11 10 37 12 11 38 12 38 39 13 12 39 13 39 40 14 13 40 14 40 41 15 14 41 15 41 42 16 15 42 16 42 43 17 16 43 17 43 44 18 17 44 18 44 45 19 18 45 19 45 46 20 19 46 20 46 47 21 20 47 21 47 48 22 21 48 22 48 49 23 22 49 23 49 50 24 23 50 24 50 51 25 24 51 25 51 52 26 52 53 26 25 52 27 53 54 27 26 53 

TShapes 72
Ve
1e-07
0.075 0.045 0
0 0

0101101
*
Ve
1e-07
0.075 0.045 0.06
0 0

0101101
*
Ed
 1e-07 1 1 0
1  1 0 0 0.06
2  1 2 0 0 0.06
4 G1 1 0 2 0
6  1 2 0
6  2 1 0
0

0101000
+72 6 -71 6 *
Ve
1e-07
-0.075 0.045 0
0 0

0101101
*
Ve
1e-07
-0.075 0.045 0.06
0 0

0101101
*
Ed
 1e-07 1 1 0
1  2 0 0 0.06
2  2 3 0 0 0.06
4 G1 1 0 3 0
6  3 3 0
6  4 1 0
0

0101000
+69 6 -68 6 *
Ed
 1e-07 1 1 0
1  3 0 0 0.15
6  5 1 11
6  6 4 12
0

0101000
+72 13 -69 13 *
Ed
 1e-07 1 1 0
1  4 0 0 0.15
6  7 1 16
6  8 5 17
0

0101000
+71 18 -68 18 *
Wi

0101100
+70 0 -67 0 -66 10 +65 15 *
Fa
0  1e-07 1 0
2  1
0111000
+64 0 *
Ve
1e-07
0.09 0.03 0
0 0

0101101
*
Ve
1e-07
0.09 0.03 0.06
0 0

0101101
*
Ed
 1e-07 1 1 0
1  5 0 0 0.06
2  3 2 0 0 0.06
4 G1 2 0 4 0
6  9 2 0
6  10 6 0
0

0101000
+62 6 -61 6 *
Ed
 1e-07 1 1 0
1  6 0 0 1.5707963267949
2  4 2 11 0 1.5707963267949
6  11 2 11
6  12 4 12
0

0101000
+62 13 -72 13 *
Ed
 1e-07 1 1 0
1  7 0 0 1.5707963267949
2  5 2 16 0 1.5707963267949
6  13 2 16
6  14 5 17
0

0101000
+61 18 -71 18 *
Wi

0101100
+60 0 -70 0 -59 10 +58 15 *
Fa
0  1e-07 2 0
2  2
0111000
+57 0 *
Ve
1e-07
-0.09 0.03 0
0 0

0101101
*
Ve
1e-07
-0.09 0.03 0.06
0 0

0101101
*
Ed
 1e-07 1 1 0
1  8 0 0 0.06
2  6 3 0 0 0.06
4 G1 3 0 5 0
6  15 3 0
6  16 7 0
0

0101000
+55 6 -54 6 *
Ed
 1e-07 1 1 0
1  9 0 1.5707963267949 3.14159265358979
2  7 3 11 1.5707963267949 3.14159265358979
6  17 3 11
6  18 4 12
0

0101000
+69 13 -55 13 *
Ed
 1e-07 1 1 0
1  10 0 1.5707963267949 3.14159265358979
2  8 3 16 1.5707963267949 3.14159265358979
6  19 3 16
6  20 5 17
0

0101000
+68 18 -54 18 *
Wi

0101100
+67 0 -53 0 -52 10 +51 15 *
Fa
0  1e-07 3 0
2  3
0111000
+50 0 *
Ve
1e-07
0.09 -0.03 0
0 0

0101101
*
Ed
 1e-07 1 1 0
1  11 0 0 0.06
6  21 4 12
6  22 6 11
0

0101000
+48 13 -62 13 *
Ve
1.00000000001735e-07
-0.09 -0.03 0
0 0

0101101
*
Ed
 1e-07 1 1 0
1  12 0 0 0.06
6  23 4 12
6  24 7 11
0

0101000
+55 13 -46 13 *
Ve
1e-07
0.075 -0.045 0
0 0

0101101
*
Ed
 1e-07 1 1 0
1  13 0 4.71238898038469 6.28318530717959
2  9 7 11 4.71238898038469 6.28318530717959
6  25 8 11
6  26 4 12
0

0101000
+44 13 -48 13 *
Ve
1e-07
-0.075 -0.045 0
0 0

0101101
*
Ed
 1e-07 1 1 0
1  14 0 3.14159265358979 4.71238898038469
2  10 8 11 3.14159265358979 4.71238898038469
6  27 9 11
6  28 4 12
0

0101000
+46 13 -42 13 *
Ed
 1e-07 1 1 0
1  15 0 0 0.15
6  29 4 12
6  30 10 11
0

0101000
+42 13 -44 13 *
Wi

0101100
+66 20 +59 20 +52 20 +47 20 +45 20 +43 20 +41 20 +40 20 *
Ve
1.00000000007348e-07
0.03 0 0
0 0

0101101
*
Ed
 1e-07 1 1 0
1  16 0 0 6.28318530717959
2  11 9 0 0 6.28318530717959
6  31 11 0
6  32 4 0
0

0101000
+38 21 -38 21 *
Wi

0101100
-37 0 *
Fa
0  1e-07 6 19
2  4
0111000
+39 0 +36 0 *
Ve
1e-07
0.09 -0.03 0.06
0 0

0101101
*
Ed
 1e-07 1 1 0
1  17 0 0 0.06
6  33 5 17
6  34 6 16
0

0101000
+34 18 -61 18 *
Ve
1.00000000001735e-07
-0.09 -0.03 0.06
0 0

0101101
*
Ed
 1e-07 1 1 0
1  18 0 0 0.06
6  35 5 17
6  36 7 16
0

0101000
+54 18 -32 18 *
Ve
1e-07
0.075 -0.045 0.06
0 0

0101101
*
Ed
 1e-07 1 1 0
1  19 0 4.71238898038469 6.28318530717959
2  12 7 16 4.71238898038469 6.28318530717959
6  37 8 16
6  38 5 17
0

0101000
+30 18 -34 18 *
Ve
1e-07
-0.075 -0.045 0.06
0 0

0101101
*
Ed
 1e-07 1 1 0
1  20 0 3.14159265358979 4.71238898038469
2  13 8 16 3.14159265358979 4.71238898038469
6  39 9 16
6  40 5 17
0

0101000
+32 18 -28 18 *
Ed
 1e-07 1 1 0
1  21 0 0 0.15
6  41 5 17
6  42 10 16
0

0101000
+28 18 -30 18 *
Wi

0101100
+65 23 +58 23 +51 23 +33 23 +31 23 +29 23 +27 23 +26 23 *
Ve
1e-07
0.03 0 0.06
0 0

0101101
*
Ed
 1e-07 1 1 0
1  22 0 0 6.28318530717959
2  14 9 27 0 6.28318530717959
6  43 11 27
6  44 5 27
0

0101000
+24 28 -24 28 *
Wi

0101100
-23 26 *
Fa
0  1e-07 10 22
2  5
0111000
+25 0 +22 0 *
Ed
 1e-07 1 1 0
1  23 0 0 0.06
2  15 7 0 0 0.06
4 G1 4 0 7 0
6  45 8 0
6  46 6 0
0

0101000
+48 6 -34 6 *
Wi

0101100
+20 0 -60 0 -47 10 +33 15 *
Fa
0  1e-07 4 0
2  6
0111000
+19 0 *
Ed
 1.00000000001735e-07 1 1 0
1  24 0 0 0.06
2  16 8 0 0 0.06
4 G1 5 0 8 0
6  47 9 0
6  48 7 0
0

0101000
+46 6 -32 6 *
Wi

0101100
+53 0 -17 0 -45 10 +31 15 *
Fa
0  1e-07 5 0
2  7
0111000
+16 0 *
Ed
 1e-07 1 1 0
1  25 0 0 0.06
2  17 7 0 0 0.06
4 G1 7 0 11 0
6  49 8 0
6  50 10 0
0

0101000
+44 6 -30 6 *
Wi

0101100
+14 0 -20 0 -43 10 +29 15 *
Fa
0  1e-07 7 0
2  8
0111000
+13 0 *
Ed
 1e-07 1 1 0
1  26 0 0 0.06
2  18 8 0 0 0.06
4 G1 8 0 11 0
6  51 9 0
6  52 10 0
0

0101000
+42 6 -28 6 *
Wi

0101100
+17 0 -11 0 -41 10 +27 15 *
Fa
0  1e-07 8 0
2  9
0111000
+10 0 *
Wi

0101100
+11 0 -14 0 -40 10 +26 15 *
Fa
0  1e-07 11 0
2  10
0111000
+8 0 *
Ed
 1e-07 1 1 0
1  27 0 0 0.06
3  19 20CN 9 0 0 0.06
7  53 54 11 0
0

0101000
+24 21 -38 21 *
Wi

0101100
-23 26 -6 0 +37 0 +6 0 *
Fa
0  1e-07 9 0
2  11
0111000
+5 0 *
Sh

0101100
-63 4 -56 4 -49 4 -35 0 +21 0 -18 4 -15 4 -12 4 -9 4 -7 4 
-4 0 *
So

0100000
+3 0 *
Co

1100000
+2 1 *

+1 0 