DBRep_DrawableShape

CASCADE Topology V1, (c) Matra-Datavision
Locations 25
1
              1               0               0               0 
              0               1               0               0 
              0               0               1               0 
1
              1               0               0               0 
              0               1               0               0 
              0               0               1               0 
2  2 -1 0
1
              1               0               0               0 
              0               1               0               0 
              0               0               1               0 
1
              1               0               0               0 
              0               1               0               0 
              0               0               1               0 
1
              1               0               0               0 
              0               1               0               0 
              0               0               1               0 
2  4 1 5 1 6 -1 0
2  2 -1 6 1 5 -1 4 -1 0
1
              1               0               0               0 
              0               1               0               0 
              0               0               1           1.524 
2  4 1 5 1 6 -1 9 1 0
2  2 -1 9 -1 6 1 5 -1 4 -1 0
2  6 -1 0
2  4 1 5 1 0
2  6 -1 9 1 0
1
              1               0               0               0 
              0               1               0               0 
              0               0               1               0 
1
              1               0               0               0 
              0               1               0               0 
              0               0               1           1.524 
2  16 -1 0
1
              1               0               0               0 
              0               1               0               0 
              0               0               1               0 
2  18 -1 16 -1 0
1
              1               0               0               0 
              0               1               0               0 
              0               0               1               0 
1
              1               0               0               0 
              0               1               0               0 
              0               0               1               0 
2  21 -1 0
1
              1               0               0               0 
              0               1               0               0 
              0               0               1               0 
1
              1               0               0               0 
              0               1               0               0 
              0               0               1               0 
2  24 -1 0
Curve2ds 22
7 0 0  1 2 2  19.428571428571431 -1.4999999999999996  19.428571428571431 1.5000000000000004 
 0 2 3 2
7 0 0  1 2 2  19.428571428571431 1.5000000000000004  4.4285714285714288 1.5 
 0 2 15 2
7 0 0  1 2 2  4.4285714285714288 1.5  -3.5714285714285712 1.5 
 0 2 8 2
7 0 0  1 2 2  -3.5714285714285712 1.5  -3.5714285714285712 3.5 
 0 2 2 2
7 0 0  1 2 2  -3.5714285714285712 3.5  4.4285714285714288 3.5 
 0 2 8 2
7 0 0  1 2 2  4.4285714285714288 3.5  4.4285714285714288 15 
 0 2 11.5 2
7 0 0  1 2 2  4.4285714285714306 15  -25.571428571428569 15 
 0 2 30 2
7 0 0  1 2 2  -25.571428571428569 15  -25.571428571428569 -15 
 0 2 30 2
7 0 0  1 2 2  -25.571428571428569 -15  4.4285714285714288 -15 
 0 2 30 2
7 0 0  1 2 2  4.4285714285714288 -3.5  4.4285714285714288 -15 
 0 2 11.5 2
7 0 0  1 2 2  -3.5714285714285712 -3.5  4.4285714285714288 -3.5 
 0 2 8 2
7 0 0  1 2 2  -3.5714285714285712 -1.5  -3.5714285714285712 -3.5 
 0 2 2 2
7 0 0  1 2 2  4.4285714285714288 -1.5  -3.5714285714285712 -1.5 
 0 2 8 2
7 0 0  1 2 2  4.428571428571427 -1.5  19.428571428571431 -1.4999999999999996 
 0 2 15 2
1 0 0 0 1 
1 0 0 1 0 
1 40 0 0 1 
1 0 60 1 0 
1 0 0 0 1 
1 0 0 1 0 
1 3 0 0 1 
1 0 1.524 1 0 
Curves 34
1 -30 -20 0 0 0 1 
1 -30 20 0 0 0 1 
1 -30 -20 0 0 1 0 
1 -30 -20 0 0 1 0 
1 30 20 0 0 0 1 
1 -30 20 0 1 0 0 
1 -30 20 0 1 0 0 
1 30 -20 0 0 0 1 
1 30 20 0 0 -1 0 
1 30 20 0 0 -1 0 
1 30 -20 0 -1 0 0 
1 30 -20 0 -1 0 0 
1 30 -1.5 0 0 1 0 
1 30 1.5 0 -1 0 0 
1 15 1.5 0 -1 0 0 
1 7 1.5 0 0 1 0 
1 7 3.5 0 1 0 0 
1 15 3.5 0 0 1 0 
1 15 15 0 -1 0 0 
1 -15 15 0 0 -1 0 
1 -15 -15 0 1 0 0 
1 15 -3.5 0 0 -1 0 
1 7 -3.5 0 1 0 0 
1 7 -1.5 0 0 -1 0 
1 15 -1.5 0 -1 0 0 
1 15 -1.5 0 1 0 0 
7 0 0  1 2 2  -30 20 0  30 20 0 
 0 2 60 2
7 0 0  1 2 2  -30 20 0  -30 -20 0 
 0 2 40 2
7 0 0  1 2 2  -30 -20 0  30 -20 0 
 0 2 60 2
7 0 0  1 2 2  30 20 0  30 -20 0 
 0 2 40 2
7 0 0  1 2 2  30 1.5 1.524  30 1.5 0 
 0 2 1.524 2
7 0 0  1 2 2  30 1.5 1.524  30 -1.5 1.524 
 0 2 3 2
7 0 0  1 2 2  30 -1.5 1.524  30 -1.5 0 
 0 2 1.524 2
7 0 0  1 2 2  30 1.5 0  30 -1.5 0 
 0 2 3 2
Polygon3D 0
PolygonOnTriangulations 0
Surfaces 9
1 -30 -20 0 -1 0 0 0 1 0 0 0 -1 
1 -30 20 0 0 1 0 1 0 0 0 0 -1 
1 30 20 0 1 0 0 0 -1 0 0 0 -1 
1 30 -20 0 0 -1 0 -1 0 0 -0 -0 -1 
1 0 0 0 0 0 1 1 0 -0 -0 1 0 
1 0 0 0 0 0 1 1 0 -0 -0 1 0 
9 0 0 0 0 3 3 4 4 2 2 -17.557142857142871 -16.500000000000011 1.524  -17.557142857142814 -5.5000000000000053 1.5239999999999989  -17.557142857142892 5.4999999999999929 1.524  -17.557142857142875 16.500000000000004 1.524  
-1.0571428571428183 -16.499999999999989 1.5239999999999985  -1.0571428571428934 -5.4999999999999982 1.5239999999999976  -1.0571428571430153 5.499999999999984 1.5239999999999985  -1.0571428571428434 16.500000000000011 1.5239999999999985  
15.442857142857322 -16.499999999999861 1.5239999999999998  15.442857142857365 -5.4999999999998117 1.5239999999999991  15.442857142855926 5.5000000000000346 1.5239999999999998  15.442857142855607 16.500000000000046 1.5239999999999998  
31.942857142856891 -16.500000000000121 1.5239999999999996  31.942857142856916 -5.5000000000000231 1.5239999999999985  31.942857142856575 5.5000000000000044 1.5239999999999996  31.942857142852215 16.500000000000011 1.5239999999999996  

-28.12857142857143 4
21.371428571428574 4

-16.5 4
16.5 4

9 0 0 0 0 1 1 2 2 2 2 -30 20 0  30 20 0  
-30 -20 0  30 -20 0  

0 2
40 2

0 2
60 2

9 0 0 0 0 1 1 2 2 2 2 30 1.5 1.524  30 1.5 0  
30 -1.5 1.524  30 -1.5 0  

0 2
3 2

0 2
1.524 2

Triangulations 0

TShapes 85
Ve
1e-07
-30 -20 0
0 0

0101101
*
Ve
1e-07
-30 -20 1.524
0 0

0101101
*
Ed
 1e-07 1 1 0
1  1 0 0 1.524
0

0101000
+85 3 -84 3 *
Ve
1e-07
-30 20 0
0 0

0101101
*
Ve
1e-07
-30 20 1.524
0 0

0101101
*
Ed
 1e-07 1 1 0
1  2 0 0 1.524
0

0101000
+82 3 -81 3 *
Ed
 1e-07 1 1 0
1  3 0 0 40
0

0101000
+85 8 -82 8 *
Ed
 1e-07 1 1 0
1  4 0 0 40
0

0101000
+84 11 -81 11 *
Wi

0101100
+83 0 -80 0 -79 7 +78 10 *
Fa
0  1e-07 1 0

0111000
+77 0 *
Ve
1e-07
30 20 0
0 0

0101101
*
Ve
1e-07
30 20 1.524
0 0

0101101
*
Ed
 1e-07 1 1 0
1  5 0 0 1.524
0

0101000
+75 3 -74 3 *
Ed
 1e-07 1 1 0
1  6 0 0 60
0

0101000
+82 8 -75 8 *
Ed
 1e-07 1 1 0
1  7 0 0 60
0

0101000
+81 11 -74 11 *
Wi

0101100
+80 0 -73 0 -72 7 +71 10 *
Fa
0  1e-07 2 0

0111000
+70 0 *
Ve
1e-07
30 -20 0
0 0

0101101
*
Ve
1e-07
30 -20 1.524
0 0

0101101
*
Ed
 1e-07 1 1 0
1  8 0 0 1.524
0

0101000
+68 3 -67 3 *
Ed
 1e-07 1 1 0
1  9 0 0 40
0

0101000
+75 8 -68 8 *
Ed
 1e-07 1 1 0
1  10 0 0 40
0

0101000
+74 11 -67 11 *
Wi

0101100
+73 0 -66 0 -65 7 +64 10 *
Fa
0  1e-07 3 0

0111000
+63 0 *
Ed
 1e-07 1 1 0
1  11 0 0 60
0

0101000
+68 8 -85 8 *
Ed
 1e-07 1 1 0
1  12 0 0 60
0

0101000
+67 11 -84 11 *
Wi

0101100
+66 0 -83 0 -61 7 +60 10 *
Fa
0  1e-07 4 0

0111000
+59 0 *
Wi

0101100
+79 0 +72 0 +65 0 +61 0 *
Fa
0  1e-07 5 0

0111000
-57 13 *
Wi

0101100
+78 0 +71 0 +64 0 +60 0 *
Fa
0  1e-07 6 0

0111000
-55 13 *
Sh

0101100
-76 0 -69 0 -62 0 -58 0 +56 12 -54 14 *
So

0100000
-53 0 *
Ve
1e-07
30 -1.5 1.524
0 0

0101101
*
Ve
1e-07
30 1.5 1.524
0 0

0101101
*
Ed
 1e-07 1 1 0
1  13 0 0 3
2  1 7 17 0 3
0

0101000
+51 19 -50 19 *
Ve
1e-07
15 1.5 1.524
0 0

0101101
*
Ed
 1e-07 1 1 0
1  14 0 0 15
2  2 7 17 0 15
0

0101000
+50 19 -48 19 *
Ve
1e-07
7 1.5 1.524
0 0

0101101
*
Ed
 1e-07 1 1 0
1  15 0 0 8
2  3 7 17 0 8
0

0101000
+48 19 -46 19 *
Ve
1e-07
7 3.5 1.524
0 0

0101101
*
Ed
 1e-07 1 1 0
1  16 0 0 2
2  4 7 17 0 2
0

0101000
+46 19 -44 19 *
Ve
1e-07
15 3.5 1.524
0 0

0101101
*
Ed
 1e-07 1 1 0
1  17 0 0 8
2  5 7 17 0 8
0

0101000
+44 19 -42 19 *
Ve
1e-07
15 15 1.524
0 0

0101101
*
Ed
 1e-07 1 1 0
1  18 0 0 11.5
2  6 7 17 0 11.5
0

0101000
+42 19 -40 19 *
Ve
1e-07
-15 15 1.524
0 0

0101101
*
Ed
 1e-07 1 1 0
1  19 0 0 30
2  7 7 17 0 30
0

0101000
+40 19 -38 19 *
Ve
1e-07
-15 -15 1.524
0 0

0101101
*
Ed
 1e-07 1 1 0
1  20 0 0 30
2  8 7 17 0 30
0

0101000
+38 19 -36 19 *
Ve
1e-07
15 -15 1.524
0 0

0101101
*
Ed
 1e-07 1 1 0
1  21 0 0 30
2  9 7 17 0 30
0

0101000
+36 19 -34 19 *
Ve
1e-07
15 -3.5 1.524
0 0

0101101
*
Ed
 1e-07 1 1 0
1  22 0 0 11.5
2  10 7 17 0 11.5
0

0101000
+32 19 -34 19 *
Ve
1e-07
7 -3.5 1.524
0 0

0101101
*
Ed
 1e-07 1 1 0
1  23 0 0 8
2  11 7 17 0 8
0

0101000
+30 19 -32 19 *
Ve
1e-07
7 -1.5 1.524
0 0

0101101
*
Ed
 1e-07 1 1 0
1  24 0 0 2
2  12 7 17 0 2
0

0101000
+28 19 -30 19 *
Ve
1e-07
15 -1.5 1.524
0 0

0101101
*
Ed
 1e-07 1 1 0
1  25 0 0 8
2  13 7 17 0 8
0

0101000
+26 19 -28 19 *
Ed
 1e-07 1 1 0
1  26 0 0 15
2  14 7 17 0 15
0

0101000
+26 19 -51 19 *
Wi

0101100
+49 16 +47 16 +45 16 +43 16 +41 16 +39 16 +37 16 +35 16 +33 16 -31 16 
-29 16 -27 16 -25 16 +24 16 *
Fa
0  1e-07 7 0

0101000
+23 0 *
Ve
1e-07
-30 20 0
0 0

0101101
*
Ve
1e-07
30 20 0
0 0

0101101
*
Ed
 1e-07 1 1 0
1  27 0 0 60
2  15 8 0 0 60
0

0101000
+21 22 -20 22 *
Ve
1e-07
-30 -20 0
0 0

0101101
*
Ed
 1e-07 1 1 0
1  28 0 0 40
2  16 8 0 0 40
0

0101000
+21 22 -18 22 *
Ve
1e-07
30 -20 0
0 0

0101101
*
Ed
 1e-07 1 1 0
1  29 0 0 60
2  17 8 0 0 60
0

0101000
+18 22 -16 22 *
Ed
 1e-07 1 1 0
1  30 0 0 40
2  18 8 0 0 40
0

0101000
+20 22 -16 22 *
Wi

0101100
-19 0 +17 0 +15 0 -14 0 *
Fa
0  1e-07 8 0

0111000
+13 0 *
Ve
1e-07
30 1.5 1.524
0 0

0101101
*
Ve
1e-07
30 1.5 0
0 0

0101101
*
Ed
 1e-07 1 1 0
1  31 0 0 1.524
2  19 9 0 0 1.524
0

0101000
+11 25 -10 25 *
Ve
1e-07
30 -1.5 1.524
0 0

0101101
*
Ed
 1e-07 1 1 0
1  32 0 0 3
2  20 9 0 0 3
0

0101000
+11 25 -8 25 *
Ve
1e-07
30 -1.5 0
0 0

0101101
*
Ed
 1e-07 1 1 0
1  33 0 0 1.524
2  21 9 0 0 1.524
0

0101000
+8 25 -6 25 *
Ed
 1e-07 1 1 0
1  34 0 0 3
2  22 9 0 0 3
0

0101000
+10 25 -6 25 *
Wi

0101100
-9 0 +7 0 +5 0 -4 0 *
Fa
0  1e-07 9 0

0111000
+3 0 *
Co

1100000
+52 1 +22 15 +12 20 +2 23 *

+1 0 