DBRep_DrawableShape

CASCADE Topology V1, (c) Matra-Datavision
Locations 14
1
              1               0               0               0 
              0               1               0               0 
              0               0               1               0 
1
              1               0               0               0 
              0               1               0               0 
              0               0               1               0 
2  2 -1 0
1
              1               0               0               0 
              0               1               0               0 
              0               0               1               0 
1
              1               0               0               0 
              0               1               0               0 
              0               0               1               0 
1
              1               0               0               0 
              0               1               0               0 
              0               0               1               0 
2  4 1 5 1 6 -1 0
2  2 -1 6 1 5 -1 4 -1 0
1
              1               0               0               0 
              0               1               0               0 
              0               0               1           1.524 
2  4 1 5 1 6 -1 9 1 0
2  2 -1 9 -1 6 1 5 -1 4 -1 0
2  6 -1 0
2  4 1 5 1 0
2  6 -1 9 1 0
Curve2ds 0
Curves 12
1 -30 -20 0 0 0 1 
1 -30 20 0 0 0 1 
1 -30 -20 0 0 1 0 
1 -30 -20 0 0 1 0 
1 30 20 0 0 0 1 
1 -30 20 0 1 0 0 
1 -30 20 0 1 0 0 
1 30 -20 0 0 0 1 
1 30 20 0 0 -1 0 
1 30 20 0 0 -1 0 
1 30 -20 0 -1 0 0 
1 30 -20 0 -1 0 0 
Polygon3D 0
PolygonOnTriangulations 0
Surfaces 6
1 -30 -20 0 -1 0 0 0 1 0 0 0 -1 
1 -30 20 0 0 1 0 1 0 0 0 0 -1 
1 30 20 0 1 0 0 0 -1 0 0 0 -1 
1 30 -20 0 0 -1 0 -1 0 0 -0 -0 -1 
1 0 0 0 0 0 1 1 0 -0 -0 1 0 
1 0 0 0 0 0 1 1 0 -0 -0 1 0 
Triangulations 0

TShapes 35
Ve
1e-07
-30 -20 0
0 0

0101101
*
Ve
1e-07
-30 -20 1.524
0 0

0101101
*
Ed
 1e-07 1 1 0
1  1 0 0 1.524
0

0101000
+35 3 -34 3 *
Ve
1e-07
-30 20 0
0 0

0101101
*
Ve
1e-07
-30 20 1.524
0 0

0101101
*
Ed
 1e-07 1 1 0
1  2 0 0 1.524
0

0101000
+32 3 -31 3 *
Ed
 1e-07 1 1 0
1  3 0 0 40
0

0101000
+35 8 -32 8 *
Ed
 1e-07 1 1 0
1  4 0 0 40
0

0101000
+34 11 -31 11 *
Wi

0101100
+33 0 -30 0 -29 7 +28 10 *
Fa
0  1e-07 1 0

0111000
+27 0 *
Ve
1e-07
30 20 0
0 0

0101101
*
Ve
1e-07
30 20 1.524
0 0

0101101
*
Ed
 1e-07 1 1 0
1  5 0 0 1.524
0

0101000
+25 3 -24 3 *
Ed
 1e-07 1 1 0
1  6 0 0 60
0

0101000
+32 8 -25 8 *
Ed
 1e-07 1 1 0
1  7 0 0 60
0

0101000
+31 11 -24 11 *
Wi

0101100
+30 0 -23 0 -22 7 +21 10 *
Fa
0  1e-07 2 0

0111000
+20 0 *
Ve
1e-07
30 -20 0
0 0

0101101
*
Ve
1e-07
30 -20 1.524
0 0

0101101
*
Ed
 1e-07 1 1 0
1  8 0 0 1.524
0

0101000
+18 3 -17 3 *
Ed
 1e-07 1 1 0
1  9 0 0 40
0

0101000
+25 8 -18 8 *
Ed
 1e-07 1 1 0
1  10 0 0 40
0

0101000
+24 11 -17 11 *
Wi

0101100
+23 0 -16 0 -15 7 +14 10 *
Fa
0  1e-07 3 0

0111000
+13 0 *
Ed
 1e-07 1 1 0
1  11 0 0 60
0

0101000
+18 8 -35 8 *
Ed
 1e-07 1 1 0
1  12 0 0 60
0

0101000
+17 11 -34 11 *
Wi

0101100
+16 0 -33 0 -11 7 +10 10 *
Fa
0  1e-07 4 0

0111000
+9 0 *
Wi

0101100
+29 0 +22 0 +15 0 +11 0 *
Fa
0  1e-07 5 0

0111000
-7 13 *
Wi

0101100
+28 0 +21 0 +14 0 +10 0 *
Fa
0  1e-07 6 0

0111000
-5 13 *
Sh

0101100
-26 0 -19 0 -12 0 -8 0 +6 12 -4 14 *
So

0100000
-3 0 *
Co

1100000
+2 1 *

+1 0 