DBRep_DrawableShape

CASCADE Topology V1, (c) Matra-Datavision
Locations 17
1
              1               0               0               0 
              0               1               0               0 
              0               0               1               0 
1
              1               0               0               0 
              0               1               0               0 
              0               0               1               0 
2  2 -1 0
1
              1               0               0               0 
              0               1               0               0 
              0               0               1               0 
1
              1               0               0               0 
              0               1               0               0 
              0               0               1               0 
1
              1               0               0               0 
              0               1               0               0 
              0               0               1               0 
2  4 1 5 1 6 -1 0
2  6 1 5 -1 4 -1 0
2  5 -1 4 -1 0
2  2 -1 6 1 5 -1 4 -1 0
1
              1               0               0               0 
              0               1               0               0 
              0               0               1            0.01 
2  4 1 5 1 6 -1 11 1 0
2  11 -1 6 1 5 -1 4 -1 0
2  2 -1 11 -1 6 1 5 -1 4 -1 0
2  6 -1 0
2  4 1 5 1 0
2  6 -1 11 1 0
Curve2ds 0
Curves 12
1 -0.14999999999999999 0.10000000000000001 0 0 0 1 
1 0.14999999999999999 0.10000000000000001 0 0 0 1 
1 -0.14999999999999999 0.10000000000000001 0 1 0 0 
1 -0.14999999999999999 0.10000000000000001 0 1 0 0 
1 0.14999999999999999 -0.10000000000000001 0 0 0 1 
1 0.14999999999999999 0.10000000000000001 0 0 -1 0 
1 0.14999999999999999 0.10000000000000001 0 0 -1 0 
1 -0.14999999999999999 -0.10000000000000001 0 0 0 1 
1 0.14999999999999999 -0.10000000000000001 0 -1 0 0 
1 0.14999999999999999 -0.10000000000000001 0 -1 0 0 
1 -0.14999999999999999 -0.10000000000000001 0 0 1 0 
1 -0.14999999999999999 -0.10000000000000001 0 0 1 0 
Polygon3D 0
PolygonOnTriangulations 24
2 1 2 
p 0.00085 1 0 0.01 
2 4 3 
p 0.00085 1 0 0.01 
2 4 3 
p 0.00085 1 0 0.01 
2 1 2 
p 0.00085 1 0 0.01 
2 1 4 
p 0.00085 1 0 0.3 
2 1 2 
p 0.00085 1 0 0.3 
2 2 3 
p 0.00085 1 0 0.3 
2 1 2 
p 0.00085 1 0 0.3 
2 4 3 
p 0.00085 1 0 0.01 
2 1 2 
p 0.00085 1 0 0.01 
2 1 4 
p 0.00085 1 0 0.2 
2 2 3 
p 0.00085 1 0 0.2 
2 2 3 
p 0.00085 1 0 0.2 
2 2 3 
p 0.00085 1 0 0.2 
2 4 3 
p 0.00085 1 0 0.01 
2 1 2 
p 0.00085 1 0 0.01 
2 1 4 
p 0.00085 1 0 0.3 
2 3 4 
p 0.00085 1 0 0.3 
2 2 3 
p 0.00085 1 0 0.3 
2 3 4 
p 0.00085 1 0 0.3 
2 1 4 
p 0.00085 1 0 0.2 
2 4 1 
p 0.00085 1 0 0.2 
2 2 3 
p 0.00085 1 0 0.2 
2 4 1 
p 0.00085 1 0 0.2 
Surfaces 6
1 -0.14999999999999999 0.10000000000000001 0 0 1 0 1 0 0 0 0 -1 
1 0.14999999999999999 0.10000000000000001 0 1 0 0 0 -1 0 0 0 -1 
1 0.14999999999999999 -0.10000000000000001 0 0 -1 0 -1 0 0 -0 -0 -1 
1 -0.14999999999999999 -0.10000000000000001 0 -1 0 0 0 1 0 0 0 -1 
1 0 0 0 -0 -0 -1 -1 0 0 0 1 0 
1 0 0 0 -0 -0 -1 -1 0 0 0 1 0 
Triangulations 6
4 2 1 0.00085
-0.15 0.1 0 -0.15 0.1 0.01 0.15 0.1 0.01 0.15 0.1 0 0 0 0 -0.01 0.3 -0.01 0.3 0 4 1 2 4 2 3 
4 2 1 0.00085
-0.15 -0.1 0 -0.15 -0.1 0.01 -0.15 0.1 0.01 -0.15 0.1 0 0 0 0 -0.01 0.2 -0.01 0.2 0 4 1 2 4 2 3 
4 2 1 0.00085
0.15 0.1 0 0.15 0.1 0.01 0.15 -0.1 0.01 0.15 -0.1 0 0 0 0 -0.01 0.2 -0.01 0.2 0 4 1 2 4 2 3 
4 2 1 0.00085
-0.15 0.1 0 0.15 0.1 0 0.15 -0.1 0 -0.15 -0.1 0 0.15 0.1 -0.15 0.1 -0.15 -0.1 0.15 -0.1 1 2 3 1 3 4 
4 2 1 0.00085
-0.15 0.1 0 0.15 0.1 0 0.15 -0.1 0 -0.15 -0.1 0 0.15 0.1 -0.15 0.1 -0.15 -0.1 0.15 -0.1 1 2 3 1 3 4 
4 2 1 0.00085
0.15 -0.1 0 0.15 -0.1 0.01 -0.15 -0.1 0.01 -0.15 -0.1 0 0 0 0 -0.01 0.3 -0.01 0.3 0 4 1 2 4 2 3 

TShapes 35
Ve
1e-07
-0.15 0.1 0
0 0

0101101
*
Ve
1e-07
-0.15 0.1 0.01
0 0

0101101
*
Ed
 1e-07 1 1 0
1  1 0 0 0.01
6  1 1 0
6  2 2 0
0

0101000
+35 3 -34 3 *
Ve
1e-07
0.15 0.1 0
0 0

0101101
*
Ve
1e-07
0.15 0.1 0.01
0 0

0101101
*
Ed
 1e-07 1 1 0
1  2 0 0 0.01
6  3 1 0
6  4 3 0
0

0101000
+32 3 -31 3 *
Ed
 1e-07 1 1 0
1  3 0 0 0.3
6  5 1 8
6  6 4 9
0

0101000
+35 10 -32 10 *
Ed
 1e-07 1 1 0
1  4 0 0 0.3
6  7 1 13
6  8 5 9
0

0101000
+34 14 -31 14 *
Wi

0101100
+33 0 -30 0 -29 7 +28 12 *
Fa
0  1e-07 1 0
2  1
0111000
+27 0 *
Ve
1e-07
0.15 -0.1 0
0 0

0101101
*
Ve
1e-07
0.15 -0.1 0.01
0 0

0101101
*
Ed
 1e-07 1 1 0
1  5 0 0 0.01
6  9 3 0
6  10 6 0
0

0101000
+25 3 -24 3 *
Ed
 1e-07 1 1 0
1  6 0 0 0.2
6  11 3 8
6  12 4 9
0

0101000
+32 10 -25 10 *
Ed
 1e-07 1 1 0
1  7 0 0 0.2
6  13 3 13
6  14 5 9
0

0101000
+31 14 -24 14 *
Wi

0101100
+30 0 -23 0 -22 7 +21 12 *
Fa
0  1e-07 2 0
2  3
0111000
+20 0 *
Ve
1e-07
-0.15 -0.1 0
0 0

0101101
*
Ve
1e-07
-0.15 -0.1 0.01
0 0

0101101
*
Ed
 1e-07 1 1 0
1  8 0 0 0.01
6  15 6 0
6  16 2 0
0

0101000
+18 3 -17 3 *
Ed
 1e-07 1 1 0
1  9 0 0 0.3
6  17 6 8
6  18 4 9
0

0101000
+25 10 -18 10 *
Ed
 1e-07 1 1 0
1  10 0 0 0.3
6  19 6 13
6  20 5 9
0

0101000
+24 14 -17 14 *
Wi

0101100
+23 0 -16 0 -15 7 +14 12 *
Fa
0  1e-07 3 0
2  6
0111000
+13 0 *
Ed
 1e-07 1 1 0
1  11 0 0 0.2
6  21 2 8
6  22 4 9
0

0101000
+18 10 -35 10 *
Ed
 1e-07 1 1 0
1  12 0 0 0.2
6  23 2 13
6  24 5 9
0

0101000
+17 14 -34 14 *
Wi

0101100
+16 0 -33 0 -11 7 +10 12 *
Fa
0  1e-07 4 0
2  2
0111000
+9 0 *
Wi

0101100
+29 0 +22 0 +15 0 +11 0 *
Fa
0  1e-07 5 0
2  4
0111000
+7 16 *
Wi

0101100
+28 0 +21 0 +14 0 +10 0 *
Fa
0  1e-07 6 0
2  5
0111000
+5 16 *
Sh

0101100
+26 0 +19 0 +12 0 +8 0 +6 15 -4 17 *
So

0100000
+3 0 *
Co

1100000
+2 1 *

+1 0 